<svg width="100" height="100" viewBox="0 0 100 100" fill="none" xmlns="http://www.w3.org/2000/svg">
<path d="M87.5 20V10H100V0H12.5C5.625 0 0 4.5 0 10V90C0 95.5 5.625 100 12.5 100H100V90H74.8125C82.5 85.45 87.5 78.2 87.5 70V45H25V70C25 78.2 30.0625 85.45 37.6875 90H12.5V10H25V20C25 22.75 27.8125 25 31.25 25H81.25C84.6875 25 87.5 22.75 87.5 20ZM37.5 70V55H75V70C75 78.25 66.5625 85 56.25 85C45.9375 85 37.5 78.25 37.5 70Z" fill="#FFFCEB"/>
<path d="M56.25 40C59.7018 40 62.5 37.7614 62.5 35C62.5 32.2386 59.7018 30 56.25 30C52.7982 30 50 32.2386 50 35C50 37.7614 52.7982 40 56.25 40Z" fill="#FFFCEB"/>
</svg>
