<svg width="300" height="300" viewBox="0 0 300 300" fill="none" xmlns="http://www.w3.org/2000/svg">
<g filter="url(#filter0_b)">
<path d="M0.146484 0H300V300H0.146484V0Z" fill="#C10B13"/>
</g>
<path d="M127.207 191.725H130.207H174.954H177.116L177.8 193.777C178.161 194.861 179.433 196.352 182.851 197.866C186.233 199.254 190.91 200.404 196.978 201.257C203.161 202.002 210.348 202.379 218.553 202.379C226.694 202.379 233.025 202.162 237.586 201.739C242.259 201.206 245.058 200.396 246.442 199.571C247.616 198.773 248.007 197.93 248.007 196.856C248.007 196.681 247.976 196.511 247.697 196.232C247.346 195.881 246.625 195.404 245.275 194.939L245.232 194.924L245.189 194.908C242.501 193.888 237.296 193.077 229.209 192.64C221.203 192.207 209.902 191.989 195.278 191.989C184.269 191.989 174.688 191.494 166.555 190.491L166.532 190.488L166.51 190.485C158.481 189.37 151.701 187.679 146.243 185.357L146.207 185.341L146.171 185.325C140.818 182.881 136.62 179.747 133.825 175.809L133.812 175.791L133.799 175.773C131.007 171.711 129.666 166.947 129.666 161.616C129.666 152.563 132.737 144.93 138.946 138.965L127.207 191.725ZM127.207 191.725V194.725M127.207 191.725V194.725M127.207 194.725C127.207 200.449 128.524 205.758 131.184 210.595L131.206 210.634L131.229 210.673C133.979 215.336 137.879 219.501 142.84 223.193L142.858 223.207L142.876 223.22C147.853 226.808 153.857 229.824 160.838 232.301L160.858 232.308L160.879 232.315C167.866 234.682 175.758 236.468 184.538 237.69L184.543 237.691C193.442 238.914 203.141 239.522 213.636 239.522C232.102 239.522 247.204 238.26 258.866 235.681C270.497 233.109 279.436 229.054 285.254 223.236C291.131 217.359 294 209.786 294 200.79C294 195.495 292.731 190.757 290.078 186.705C287.383 182.48 283.14 179.204 277.648 176.748C272.259 174.29 265.34 172.544 256.995 171.43C253.386 170.901 249.46 170.488 245.218 170.189H287.066H290.066M127.207 194.725L290.066 170.189M290.066 170.189V167.189M290.066 170.189V167.189M290.066 167.189C290.066 159.848 288.268 153.252 284.595 147.503C280.936 141.774 275.518 137.044 268.51 133.251C254.641 125.576 234.873 121.901 209.538 121.901C192.249 121.901 177.686 123.275 165.91 126.078M290.066 167.189L165.91 126.078M165.91 126.078C154.259 128.768 145.162 132.989 138.946 138.964L165.91 126.078ZM241.648 167.638L242.004 169.988C237.281 169.727 232.195 169.598 226.748 169.598C216.166 169.598 207.459 169.489 200.618 169.272C193.804 169.055 188.593 168.679 184.933 168.16C181.309 167.517 179.207 166.778 178.215 166.141C177.432 165.637 177.298 165.223 177.298 164.73C177.298 164.155 177.488 163.618 178.249 162.993C179.117 162.282 180.668 161.534 183.187 160.929C188.41 159.701 196.591 159.043 207.899 159.043C219.261 159.043 227.753 160.024 233.549 161.854L233.572 161.862L233.595 161.868C239.618 163.665 241.383 165.889 241.648 167.638Z" stroke="#FFFCEB" stroke-width="6"/>
<path d="M200.869 118.883C200.323 129.264 196.553 137.951 189.56 144.945C182.566 151.938 172.24 157.183 158.581 160.68C145.031 164.176 127.876 165.925 107.114 165.925C91.2699 165.925 77.0646 165.051 64.4983 163.302C51.9321 161.663 41.2235 158.822 32.3725 154.779C23.5215 150.627 16.7467 144.999 12.048 137.897C7.34934 130.794 5 121.834 5 111.016C5 100.198 7.34934 91.183 12.048 83.9711C16.7467 76.6499 23.5215 70.8585 32.3725 66.5969C41.2235 62.226 51.9321 59.1118 64.4983 57.2542C77.0646 55.3966 91.2699 54.4678 107.114 54.4678C127.876 54.4678 145.086 56.38 158.745 60.2045C172.404 63.9198 182.73 69.438 189.724 76.7592C196.717 84.0804 200.487 92.986 201.033 103.476H158.417C157.106 99.9794 154.702 96.9198 151.205 94.2972C147.709 91.5655 142.464 89.4347 135.47 87.9049C128.477 86.3751 119.025 85.6102 107.114 85.6102C93.1275 85.6102 81.7632 86.4843 73.0215 88.2327C64.2798 89.8717 57.8874 92.5489 53.8444 96.2641C49.8013 99.9794 47.7798 104.897 47.7798 111.016C47.7798 116.589 49.8013 121.123 53.8444 124.62C57.8874 128.117 64.2798 130.685 73.0215 132.324C81.7632 133.963 93.1275 134.782 107.114 134.782C119.025 134.782 128.422 134.072 135.306 132.652C142.3 131.231 147.545 129.319 151.041 126.915C154.538 124.402 156.942 121.724 158.253 118.883H200.869Z" fill="black"/>
<defs>
<filter id="filter0_b" x="-5.20912" y="-5.3556" width="310.565" height="310.711" filterUnits="userSpaceOnUse" color-interpolation-filters="sRGB">
<feFlood flood-opacity="0" result="BackgroundImageFix"/>
<feGaussianBlur in="BackgroundImage" stdDeviation="2.6778"/>
<feComposite in2="SourceAlpha" operator="in" result="effect1_backgroundBlur"/>
<feBlend mode="normal" in="SourceGraphic" in2="effect1_backgroundBlur" result="shape"/>
</filter>
</defs>
</svg>
