<svg width="1855" height="914" viewBox="0 0 1855 914" fill="none" xmlns="http://www.w3.org/2000/svg">
<path d="M11.3213 268.16V263.16H6.32125V268.16H11.3213ZM50.6333 268.16L55.3767 266.579L54.2371 263.16H50.6333V268.16ZM56.5373 273.344L54.519 277.919L54.576 277.944L54.6335 277.967L56.5373 273.344ZM69.6413 276.512L68.9463 281.463L68.9942 281.47L69.0422 281.476L69.6413 276.512ZM105.929 276.944L106.392 281.923L106.443 281.918L106.494 281.912L105.929 276.944ZM114.857 274.64L117.465 278.906L117.549 278.855L117.631 278.8L114.857 274.64ZM113.273 265.856L111.5 270.531L111.571 270.558L111.643 270.583L113.273 265.856ZM98.4413 263.696L98.1714 268.689L98.1714 268.689L98.4413 263.696ZM43.5773 261.824L42.8894 266.776L42.9274 266.782L42.9654 266.786L43.5773 261.824ZM26.4413 257.504L24.3648 262.052L24.4238 262.079L24.4835 262.105L26.4413 257.504ZM16.6493 250.016L12.529 252.849L12.5502 252.879L12.5717 252.91L16.6493 250.016ZM20.8253 221.072L24.2894 224.678L24.2908 224.676L20.8253 221.072ZM43.2892 210.416L44.4135 215.288L44.4305 215.284L44.4474 215.28L43.2892 210.416ZM131.561 216.464L129.139 220.838L129.161 220.85L129.182 220.862L131.561 216.464ZM149.129 243.968V248.968H154.129V243.968H149.129ZM111.833 243.968L106.89 244.717L107.534 248.968H111.833V243.968ZM102.905 236.768L101.4 241.536L101.438 241.548L101.476 241.559L102.905 236.768ZM57.2573 235.904L56.1121 231.037L56.1012 231.039L56.0904 231.042L57.2573 235.904ZM58.9853 247.424L58.1163 252.348L58.197 252.362L58.2781 252.374L58.9853 247.424ZM122.345 250.304L121.62 255.251L121.652 255.256L121.684 255.26L122.345 250.304ZM139.769 254.768L137.693 259.316L137.711 259.325L137.73 259.333L139.769 254.768ZM149.561 262.544L145.343 265.228L145.362 265.258L145.381 265.287L149.561 262.544ZM145.673 291.344L149.209 294.88L149.209 294.88L145.673 291.344ZM123.785 301.568L124.865 306.45L124.865 306.45L123.785 301.568ZM59.4173 303.296L58.7277 308.248L58.7362 308.249L59.4173 303.296ZM39.1133 298.688L37.4412 303.4L37.4751 303.412L37.5092 303.424L39.1133 298.688ZM23.9933 291.056L21.0082 295.067L21.0386 295.09L21.0692 295.112L23.9933 291.056ZM14.4893 280.832L10.1082 283.242L10.1443 283.307L10.1824 283.372L14.4893 280.832ZM11.3213 273.16H50.6333V263.16H11.3213V273.16ZM45.8898 269.741C47.2322 273.768 50.8028 276.279 54.519 277.919L58.5555 268.769C55.7437 267.529 55.3783 266.584 55.3767 266.579L45.8898 269.741ZM54.6335 277.967C58.4389 279.534 63.2647 280.666 68.9463 281.463L70.3362 271.561C65.0738 270.822 61.1636 269.842 58.441 268.721L54.6335 277.967ZM69.0422 281.476C74.8577 282.178 81.497 282.52 88.9373 282.52V272.52C81.7855 272.52 75.5608 272.19 70.2404 271.548L69.0422 281.476ZM88.9373 282.52C96.1973 282.52 102.039 282.328 106.392 281.923L105.466 271.965C101.564 272.328 96.0772 272.52 88.9373 272.52V282.52ZM106.494 281.912C110.817 281.421 114.74 280.571 117.465 278.906L112.25 270.374C111.519 270.821 109.489 271.507 105.365 271.976L106.494 281.912ZM117.631 278.8C120.615 276.811 122.449 273.779 122.449 270.032H112.449C112.449 270.135 112.438 270.181 112.437 270.187C112.436 270.191 112.438 270.182 112.443 270.173C112.461 270.142 112.409 270.263 112.084 270.48L117.631 278.8ZM122.449 270.032C122.449 264.88 118.275 262.292 114.903 261.129L111.643 270.583C112.116 270.746 112.439 270.897 112.647 271.014C112.855 271.131 112.904 271.19 112.87 271.156C112.827 271.113 112.705 270.974 112.6 270.731C112.491 270.48 112.449 270.231 112.449 270.032H122.449ZM115.047 261.181C111.462 259.821 105.813 259.087 98.7111 258.703L98.1714 268.689C105.277 269.073 109.517 269.779 111.5 270.531L115.047 261.181ZM98.7111 258.703C91.4729 258.312 81.384 258.12 68.4893 258.12V268.12C81.3225 268.12 91.2016 268.312 98.1714 268.689L98.7111 258.703ZM68.4893 258.12C59.0265 258.12 50.9368 257.693 44.1891 256.862L42.9654 266.786C50.2337 267.683 58.752 268.12 68.4893 268.12V258.12ZM44.2651 256.872C37.622 255.949 32.374 254.595 28.399 252.903L24.4835 262.105C29.5325 264.253 35.7085 265.779 42.8894 266.776L44.2651 256.872ZM28.5177 252.956C24.6467 251.188 22.1878 249.181 20.7268 247.122L12.5717 252.91C15.3347 256.803 19.4038 259.788 24.3648 262.052L28.5177 252.956ZM20.7695 247.183C19.3047 245.053 18.4813 242.424 18.4813 239.072H8.48125C8.48125 244.168 9.7698 248.835 12.529 252.849L20.7695 247.183ZM18.4813 239.072C18.4813 233.024 20.4532 228.363 24.2894 224.678L17.3611 217.466C11.4053 223.189 8.48125 230.528 8.48125 239.072H18.4813ZM24.2908 224.676C28.3911 220.734 34.916 217.48 44.4135 215.288L42.165 205.544C31.6945 207.96 23.2435 211.81 17.3597 217.468L24.2908 224.676ZM44.4474 215.28C54.0191 213.001 66.1758 211.816 81.0173 211.816V201.816C65.7147 201.816 52.7194 203.031 42.1311 205.552L44.4474 215.28ZM81.0173 211.816C102.747 211.816 118.603 215.004 129.139 220.838L133.983 212.09C121.287 205.06 103.448 201.816 81.0173 201.816V211.816ZM129.182 220.862C134.458 223.716 138.144 227.058 140.523 230.784C142.886 234.482 144.129 238.82 144.129 243.968H154.129C154.129 237.116 152.445 230.87 148.951 225.4C145.474 219.958 140.377 215.548 133.94 212.066L129.182 220.862ZM149.129 238.968H111.833V248.968H149.129V238.968ZM116.777 243.219C115.828 236.957 110.148 233.711 104.334 231.977L101.476 241.559C103.868 242.273 105.306 243.042 106.102 243.684C106.816 244.259 106.872 244.601 106.89 244.717L116.777 243.219ZM104.411 232C98.2172 230.044 89.8438 229.176 79.5773 229.176V239.176C89.4707 239.176 96.6493 240.036 101.4 241.536L104.411 232ZM79.5773 229.176C69.5069 229.176 61.5922 229.747 56.1121 231.037L58.4024 240.771C62.7143 239.757 69.6796 239.176 79.5773 239.176V229.176ZM56.0904 231.042C53.343 231.701 50.7158 232.714 48.6869 234.378C46.4792 236.188 45.0573 238.734 45.0573 241.808H55.0573C55.0573 241.858 55.0397 241.99 54.9703 242.127C54.9086 242.249 54.8776 242.233 55.0277 242.11C55.3987 241.806 56.3715 241.259 58.4241 240.766L56.0904 231.042ZM45.0573 241.808C45.0573 245.159 46.7801 247.805 49.3695 249.47L54.777 241.058C54.6386 240.969 54.7471 241.005 54.8801 241.233C54.9439 241.342 54.9927 241.462 55.0232 241.579C55.0532 241.695 55.0573 241.776 55.0573 241.808H45.0573ZM49.3695 249.47C51.6022 250.905 54.7502 251.754 58.1163 252.348L59.8542 242.5C56.6923 241.942 55.2323 241.351 54.777 241.058L49.3695 249.47ZM58.2781 252.374C61.908 252.892 66.8251 253.235 72.9386 253.429L73.2559 243.435C67.2734 243.245 62.7825 242.916 59.6924 242.474L58.2781 252.374ZM72.9386 253.429C79.0595 253.624 86.7972 253.72 96.1373 253.72V243.72C86.8533 243.72 79.231 243.624 73.2559 243.435L72.9386 253.429ZM96.1373 253.72C106.257 253.72 114.735 254.241 121.62 255.251L123.071 245.357C115.555 244.255 106.562 243.72 96.1373 243.72V253.72ZM121.684 255.26C128.612 256.184 133.889 257.58 137.693 259.316L141.846 250.22C136.817 247.924 130.478 246.344 123.006 245.348L121.684 255.26ZM137.73 259.333C141.625 261.074 143.996 263.111 145.343 265.228L153.78 259.86C151.095 255.641 146.938 252.494 141.809 250.203L137.73 259.333ZM145.381 265.287C146.786 267.428 147.585 270.089 147.585 273.488H157.585C157.585 268.439 156.369 263.804 153.742 259.801L145.381 265.287ZM147.585 273.488C147.585 279.631 145.692 284.254 142.138 287.808L149.209 294.88C154.87 289.218 157.585 281.937 157.585 273.488H147.585ZM142.138 287.808C138.485 291.461 132.245 294.576 122.706 296.686L124.865 306.45C135.293 304.144 143.646 300.443 149.209 294.88L142.138 287.808ZM122.706 296.686C113.218 298.784 100.565 299.88 84.6173 299.88V309.88C100.926 309.88 114.384 308.768 124.865 306.45L122.706 296.686ZM84.6173 299.88C75.6865 299.88 67.5174 299.363 60.0983 298.343L58.7362 308.249C66.6771 309.341 75.308 309.88 84.6173 309.88V299.88ZM60.1068 298.344C52.7691 297.322 46.3159 295.849 40.7173 293.952L37.5092 303.424C43.8146 305.559 50.8974 307.158 58.7277 308.248L60.1068 298.344ZM40.7853 293.976C35.1769 291.986 30.5817 289.642 26.9173 287L21.0692 295.112C25.6608 298.422 31.1456 301.166 37.4412 303.4L40.7853 293.976ZM26.9783 287.045C23.2879 284.298 20.6096 281.367 18.7961 278.292L10.1824 283.372C12.7849 287.785 16.4426 291.67 21.0082 295.067L26.9783 287.045ZM18.8703 278.422C17.1855 275.359 16.3213 271.97 16.3213 268.16H6.32125C6.32125 273.566 7.56904 278.625 10.1082 283.242L18.8703 278.422ZM162.617 209.84V204.84H157.617V209.84H162.617ZM312.377 209.84H317.377V204.84H312.377V209.84ZM312.377 237.2V242.2H317.377V237.2H312.377ZM162.617 237.2H157.617V242.2H162.617V237.2ZM219.497 235.328V230.328H214.497V235.328H219.497ZM255.497 235.328H260.497V230.328H255.497V235.328ZM255.497 302V307H260.497V302H255.497ZM219.497 302H214.497V307H219.497V302ZM162.617 214.84H312.377V204.84H162.617V214.84ZM307.377 209.84V237.2H317.377V209.84H307.377ZM312.377 232.2H162.617V242.2H312.377V232.2ZM167.617 237.2V209.84H157.617V237.2H167.617ZM219.497 240.328H255.497V230.328H219.497V240.328ZM250.497 235.328V302H260.497V235.328H250.497ZM255.497 297H219.497V307H255.497V297ZM224.497 302V235.328H214.497V302H224.497ZM456.177 209.84V204.84H451.177V209.84H456.177ZM492.177 209.84H497.177V204.84H492.177V209.84ZM487.569 276.8L483.157 274.447L483.15 274.461L483.142 274.474L487.569 276.8ZM475.041 290.912L477.848 295.049L477.873 295.032L477.898 295.015L475.041 290.912ZM456.465 299.408L457.847 304.213L457.847 304.213L456.465 299.408ZM433.857 303.584L433.383 298.607L433.35 298.61L433.318 298.613L433.857 303.584ZM384.177 303.584L384.703 298.612L384.674 298.609L384.645 298.606L384.177 303.584ZM361.425 299.408L360.025 304.208L360.033 304.211L360.042 304.213L361.425 299.408ZM343.281 290.912L340.353 294.965L340.378 294.983L340.403 295.001L343.281 290.912ZM331.041 276.8L326.568 279.036L326.591 279.081L326.614 279.126L331.041 276.8ZM326.721 209.84V204.84H321.721V209.84H326.721ZM362.721 209.84H367.721V204.84H362.721V209.84ZM384.321 275.36L383.236 280.241L383.275 280.25L383.314 280.258L384.321 275.36ZM434.289 275.36L435.295 280.258L435.327 280.251L435.359 280.244L434.289 275.36ZM450.417 267.008L446.796 263.56L446.774 263.583L446.753 263.606L450.417 267.008ZM461.177 249.44V209.84H451.177V249.44H461.177ZM456.177 214.84H492.177V204.84H456.177V214.84ZM487.177 209.84V255.92H497.177V209.84H487.177ZM487.177 255.92C487.177 263.461 485.758 269.57 483.157 274.447L491.98 279.153C495.523 272.51 497.177 264.699 497.177 255.92H487.177ZM483.142 274.474C480.548 279.411 476.918 283.512 472.183 286.809L477.898 295.015C483.916 290.824 488.637 285.517 491.995 279.126L483.142 274.474ZM472.233 286.775C467.344 290.092 461.644 292.715 455.082 294.603L457.847 304.213C465.301 302.069 471.985 299.028 477.848 295.049L472.233 286.775ZM455.082 294.603C448.402 296.525 441.173 297.865 433.383 298.607L434.331 308.561C442.669 307.767 450.512 306.323 457.847 304.213L455.082 294.603ZM433.318 298.613C425.534 299.457 417.602 299.88 409.521 299.88V309.88C417.951 309.88 426.243 309.439 434.396 308.555L433.318 298.613ZM409.521 299.88C400.949 299.88 392.677 299.456 384.703 298.612L383.65 308.556C391.996 309.44 400.62 309.88 409.521 309.88V299.88ZM384.645 298.606C376.757 297.864 369.482 296.523 362.807 294.603L360.042 304.213C367.383 306.325 375.276 307.768 383.708 308.562L384.645 298.606ZM362.825 294.608C356.37 292.725 350.836 290.114 346.158 286.823L340.403 295.001C346.094 299.006 352.655 302.059 360.025 304.208L362.825 294.608ZM346.208 286.859C341.651 283.567 338.084 279.455 335.467 274.474L326.614 279.126C329.95 285.473 334.542 290.769 340.353 294.965L346.208 286.859ZM335.513 274.564C333.06 269.659 331.721 263.505 331.721 255.92H321.721C321.721 264.655 323.261 272.421 326.568 279.036L335.513 274.564ZM331.721 255.92V209.84H321.721V255.92H331.721ZM326.721 214.84H362.721V204.84H326.721V214.84ZM357.721 209.84V249.44H367.721V209.84H357.721ZM357.721 249.44C357.721 257.88 359.78 265.142 364.673 270.41L372.001 263.606C369.405 260.81 367.721 256.36 367.721 249.44H357.721ZM364.673 270.41C369.28 275.372 375.617 278.548 383.236 280.241L385.405 270.479C379.2 269.1 374.881 266.708 372.001 263.606L364.673 270.41ZM383.314 280.258C390.749 281.785 399.505 282.52 409.521 282.52V272.52C399.952 272.52 391.908 271.815 385.327 270.462L383.314 280.258ZM409.521 282.52C419.26 282.52 427.868 281.784 435.295 280.258L433.282 270.462C426.693 271.816 418.789 272.52 409.521 272.52V282.52ZM435.359 280.244C443.062 278.556 449.46 275.386 454.081 270.41L446.753 263.606C443.885 266.694 439.531 269.092 433.218 270.476L435.359 280.244ZM454.037 270.456C459.053 265.19 461.177 257.911 461.177 249.44H451.177C451.177 256.329 449.46 260.762 446.796 263.56L454.037 270.456ZM648.138 213.584L646.721 218.379L646.721 218.379L648.138 213.584ZM668.01 223.808L664.665 227.524L664.665 227.524L668.01 223.808ZM678.09 238.64L673.363 240.27L673.38 240.319L673.398 240.369L678.09 238.64ZM677.802 273.344L682.438 275.215L682.444 275.201L682.45 275.187L677.802 273.344ZM666.858 288.032L663.621 284.221L663.604 284.236L663.586 284.251L666.858 288.032ZM646.842 298.256L645.41 293.465L645.402 293.468L645.395 293.47L646.842 298.256ZM512.346 302H507.346V307H512.346V302ZM512.346 209.84V204.84H507.346V209.84H512.346ZM548.346 273.2H543.346V278.2H548.346V273.2ZM628.266 272.192L629.149 277.113L629.21 277.102L629.27 277.09L628.266 272.192ZM637.194 268.88L634.544 264.64L634.503 264.666L634.462 264.692L637.194 268.88ZM642.09 263.552L637.579 261.395L637.558 261.439L637.538 261.483L642.09 263.552ZM642.09 248.432L637.504 250.426L637.558 250.548L637.617 250.668L642.09 248.432ZM637.194 242.96L634.462 247.148L634.503 247.174L634.544 247.2L637.194 242.96ZM628.266 239.792L627.261 244.69L627.321 244.702L627.382 244.713L628.266 239.792ZM548.346 238.64V233.64H543.346V238.64H548.346ZM616.026 214.84C628.709 214.84 638.894 216.067 646.721 218.379L649.554 208.789C640.485 206.109 629.262 204.84 616.026 204.84V214.84ZM646.721 218.379C654.7 220.737 660.583 223.85 664.665 227.524L671.354 220.092C665.837 215.126 658.471 211.423 649.554 208.789L646.721 218.379ZM664.665 227.524C668.897 231.333 671.745 235.579 673.363 240.27L682.817 237.01C680.594 230.565 676.722 224.923 671.354 220.092L664.665 227.524ZM673.398 240.369C675.202 245.267 676.114 250.44 676.114 255.92H686.114C686.114 249.304 685.009 242.957 682.781 236.911L673.398 240.369ZM676.114 255.92C676.114 261.343 675.127 266.525 673.154 271.501L682.45 275.187C684.892 269.027 686.114 262.593 686.114 255.92H676.114ZM673.165 271.473C671.298 276.101 668.174 280.355 663.621 284.221L670.094 291.843C675.717 287.069 679.89 281.531 682.438 275.215L673.165 271.473ZM663.586 284.251C659.271 287.985 653.291 291.11 645.41 293.465L648.273 303.047C657.096 300.41 664.46 296.719 670.13 291.813L663.586 284.251ZM645.395 293.47C637.76 295.778 628.013 297 616.026 297V307C628.614 307 639.411 305.726 648.289 303.042L645.395 293.47ZM616.026 297H512.346V307H616.026V297ZM517.346 302V209.84H507.346V302H517.346ZM512.346 214.84H616.026V204.84H512.346V214.84ZM548.346 278.2H614.586V268.2H548.346V278.2ZM614.586 278.2C620.147 278.2 625.022 277.854 629.149 277.113L627.382 267.271C624.022 267.874 619.776 268.2 614.586 268.2V278.2ZM629.27 277.09C633.376 276.248 637.011 274.968 639.925 273.068L634.462 264.692C632.96 265.672 630.643 266.6 627.261 267.294L629.27 277.09ZM639.844 273.12C642.835 271.25 645.209 268.773 646.641 265.621L637.538 261.483C637.05 262.555 636.16 263.63 634.544 264.64L639.844 273.12ZM646.6 265.709C648.031 262.719 648.674 259.416 648.674 255.92H638.674C638.674 258.184 638.261 259.969 637.579 261.395L646.6 265.709ZM648.674 255.92C648.674 252.432 648.033 249.138 646.562 246.196L637.617 250.668C638.258 251.95 638.674 253.648 638.674 255.92H648.674ZM646.675 246.438C645.261 243.187 642.891 240.624 639.844 238.72L634.544 247.2C636.104 248.176 636.998 249.261 637.504 250.426L646.675 246.438ZM639.925 238.772C636.966 236.842 633.283 235.613 629.149 234.871L627.382 244.713C630.736 245.315 633.005 246.198 634.462 247.148L639.925 238.772ZM629.27 234.894C625.093 234.037 620.175 233.64 614.586 233.64V243.64C619.749 243.64 623.951 244.011 627.261 244.69L629.27 234.894ZM614.586 233.64H548.346V243.64H614.586V233.64ZM543.346 238.64V273.2H553.346V238.64H543.346ZM701.959 209.84V204.84H696.959V209.84H701.959ZM737.959 209.84H742.959V204.84H737.959V209.84ZM737.959 302V307H742.959V302H737.959ZM701.959 302H696.959V307H701.959V302ZM701.959 214.84H737.959V204.84H701.959V214.84ZM732.959 209.84V302H742.959V209.84H732.959ZM737.959 297H701.959V307H737.959V297ZM706.959 302V209.84H696.959V302H706.959ZM795.404 299.408L793.997 304.206L794.013 304.211L794.03 304.216L795.404 299.408ZM767.468 282.992L763.543 286.09L763.566 286.119L763.589 286.147L767.468 282.992ZM767.468 228.992L763.568 225.862L763.563 225.869L767.468 228.992ZM795.404 212.576L796.777 217.384L796.794 217.379L796.81 217.374L795.404 212.576ZM896.492 212.576L895.085 217.374L895.101 217.379L895.118 217.384L896.492 212.576ZM924.284 228.992L920.359 232.09L920.382 232.119L920.405 232.147L924.284 228.992ZM924.284 282.992L920.384 279.862L920.379 279.869L924.284 282.992ZM896.492 299.408L897.865 304.216L897.882 304.211L897.898 304.206L896.492 299.408ZM871.58 275.792L872.369 280.729L872.401 280.724L872.433 280.719L871.58 275.792ZM888.284 269.312L891.36 273.254L891.389 273.231L891.419 273.207L888.284 269.312ZM888.284 242.672L885.148 246.567L885.178 246.591L885.207 246.614L888.284 242.672ZM871.58 236.192L870.726 241.119L870.758 241.124L870.79 241.129L871.58 236.192ZM819.884 236.192L820.653 241.132L820.679 241.128L820.705 241.124L819.884 236.192ZM802.46 242.672L805.445 246.683L805.452 246.678L805.46 246.672L802.46 242.672ZM802.46 269.312L799.415 273.279L799.467 273.318L799.519 273.356L802.46 269.312ZM819.884 275.792L819.051 280.722L819.087 280.728L819.123 280.734L819.884 275.792ZM845.948 299.88C825.25 299.88 808.918 298.069 796.777 294.6L794.03 304.216C807.425 308.043 824.789 309.88 845.948 309.88V299.88ZM796.81 294.61C784.61 291.033 776.342 285.979 771.346 279.837L763.589 286.147C770.305 294.405 780.661 300.295 793.997 304.206L796.81 294.61ZM771.392 279.894C766.435 273.615 763.828 265.732 763.828 255.92H753.828C753.828 267.612 756.98 277.777 763.543 286.09L771.392 279.894ZM763.828 255.92C763.828 246.106 766.435 238.286 771.372 232.115L763.563 225.869C756.98 234.098 753.828 244.23 753.828 255.92H763.828ZM771.367 232.122C776.355 225.907 784.602 220.862 796.777 217.384L794.03 207.768C780.669 211.586 770.292 217.485 763.568 225.862L771.367 232.122ZM796.81 217.374C808.938 213.818 825.257 211.96 845.948 211.96V201.96C824.782 201.96 807.405 203.846 793.997 207.778L796.81 217.374ZM845.948 211.96C866.638 211.96 882.957 213.818 895.085 217.374L897.898 207.778C884.49 203.846 867.113 201.96 845.948 201.96V211.96ZM895.118 217.384C907.294 220.862 915.474 225.902 920.359 232.09L928.208 225.894C921.573 217.49 911.225 211.585 897.865 207.768L895.118 217.384ZM920.405 232.147C925.423 238.317 928.068 246.126 928.068 255.92H938.068C938.068 244.21 934.856 234.067 928.163 225.837L920.405 232.147ZM928.068 255.92C928.068 265.712 925.424 273.584 920.384 279.862L928.183 286.122C934.856 277.808 938.068 267.632 938.068 255.92H928.068ZM920.379 279.869C915.487 285.984 907.286 291.032 895.085 294.61L897.898 304.206C911.233 300.296 921.56 294.4 928.188 286.115L920.379 279.869ZM895.118 294.6C882.977 298.069 866.645 299.88 845.948 299.88V309.88C867.106 309.88 884.47 308.043 897.865 304.216L895.118 294.6ZM845.948 282.52C856.014 282.52 864.835 281.935 872.369 280.729L870.79 270.855C863.924 271.953 855.657 272.52 845.948 272.52V282.52ZM872.433 280.719C880.095 279.391 886.544 277.012 891.36 273.254L885.207 265.37C882.151 267.756 877.464 269.697 870.726 270.865L872.433 280.719ZM891.419 273.207C896.708 268.95 899.188 262.955 899.188 255.92H889.188C889.188 260.405 887.731 263.338 885.148 265.417L891.419 273.207ZM899.188 255.92C899.188 248.887 896.706 242.903 891.36 238.73L885.207 246.614C887.733 248.585 889.188 251.433 889.188 255.92H899.188ZM891.419 238.777C886.57 234.874 880.071 232.487 872.369 231.255L870.79 241.129C877.488 242.201 882.125 244.134 885.148 246.567L891.419 238.777ZM872.433 231.265C864.873 229.955 856.029 229.32 845.948 229.32V239.32C855.642 239.32 863.886 239.933 870.726 241.119L872.433 231.265ZM845.948 229.32C835.862 229.32 826.888 229.956 819.062 231.26L820.705 241.124C827.855 239.932 836.257 239.32 845.948 239.32V229.32ZM819.114 231.252C811.229 232.48 804.555 234.851 799.46 238.672L805.46 246.672C808.812 244.157 813.754 242.208 820.653 241.132L819.114 231.252ZM799.474 238.661C793.914 242.799 791.268 248.797 791.268 255.92H801.268C801.268 251.523 802.749 248.689 805.445 246.683L799.474 238.661ZM791.268 255.92C791.268 263.044 793.911 269.054 799.415 273.279L805.504 265.345C802.752 263.234 801.268 260.316 801.268 255.92H791.268ZM799.519 273.356C804.579 277.036 811.206 279.398 819.051 280.722L820.716 270.862C813.777 269.69 808.788 267.732 805.4 265.268L799.519 273.356ZM819.123 280.734C826.925 281.934 835.877 282.52 845.948 282.52V272.52C836.242 272.52 827.818 271.954 820.644 270.85L819.123 280.734Z" fill="#FFFCEB"/>
<path d="M11.3213 385.607V380.607H6.32125V385.607H11.3213ZM50.6333 385.607L55.3767 384.026L54.2371 380.607H50.6333V385.607ZM56.5373 390.791L54.519 395.365L54.576 395.39L54.6335 395.414L56.5373 390.791ZM69.6413 393.959L68.9463 398.91L68.9942 398.917L69.0422 398.923L69.6413 393.959ZM105.929 394.391L106.392 399.369L106.443 399.365L106.494 399.359L105.929 394.391ZM114.857 392.087L117.465 396.353L117.549 396.302L117.631 396.247L114.857 392.087ZM113.273 383.303L111.5 387.978L111.571 388.005L111.643 388.03L113.273 383.303ZM98.4413 381.143L98.1714 386.135L98.1714 386.135L98.4413 381.143ZM43.5773 379.271L42.8894 384.223L42.9274 384.229L42.9654 384.233L43.5773 379.271ZM26.4413 374.951L24.3648 379.499L24.4238 379.526L24.4835 379.552L26.4413 374.951ZM16.6493 367.463L12.529 370.295L12.5502 370.326L12.5717 370.357L16.6493 367.463ZM20.8253 338.519L24.2894 342.124L24.2908 342.123L20.8253 338.519ZM43.2892 327.863L44.4135 332.735L44.4305 332.731L44.4474 332.727L43.2892 327.863ZM131.561 333.911L129.139 338.285L129.161 338.297L129.182 338.308L131.561 333.911ZM149.129 361.415V366.415H154.129V361.415H149.129ZM111.833 361.415L106.89 362.164L107.534 366.415H111.833V361.415ZM102.905 354.215L101.4 358.983L101.438 358.995L101.476 359.006L102.905 354.215ZM57.2573 353.351L56.1121 348.484L56.1012 348.486L56.0904 348.489L57.2573 353.351ZM58.9853 364.871L58.1163 369.795L58.197 369.809L58.2781 369.821L58.9853 364.871ZM122.345 367.751L121.62 372.698L121.652 372.703L121.684 372.707L122.345 367.751ZM139.769 372.215L137.693 376.763L137.711 376.772L137.73 376.78L139.769 372.215ZM149.561 379.991L145.343 382.675L145.362 382.705L145.381 382.734L149.561 379.991ZM145.673 408.791L149.209 412.326L149.209 412.326L145.673 408.791ZM123.785 419.015L124.865 423.897L124.865 423.897L123.785 419.015ZM59.4173 420.743L58.7277 425.695L58.7362 425.696L59.4173 420.743ZM39.1133 416.135L37.4412 420.847L37.4751 420.859L37.5092 420.87L39.1133 416.135ZM23.9933 408.503L21.0082 412.514L21.0386 412.537L21.0692 412.559L23.9933 408.503ZM14.4893 398.279L10.1082 400.688L10.1443 400.754L10.1824 400.819L14.4893 398.279ZM11.3213 390.607H50.6333V380.607H11.3213V390.607ZM45.8898 387.188C47.2322 391.215 50.8028 393.726 54.519 395.365L58.5555 386.216C55.7437 384.976 55.3783 384.031 55.3767 384.026L45.8898 387.188ZM54.6335 395.414C58.4389 396.981 63.2647 398.113 68.9463 398.91L70.3362 389.007C65.0738 388.269 61.1636 387.288 58.441 386.167L54.6335 395.414ZM69.0422 398.923C74.8577 399.625 81.497 399.967 88.9373 399.967V389.967C81.7855 389.967 75.5608 389.637 70.2404 388.995L69.0422 398.923ZM88.9373 399.967C96.1973 399.967 102.039 399.774 106.392 399.369L105.466 389.412C101.564 389.775 96.0772 389.967 88.9373 389.967V399.967ZM106.494 399.359C110.817 398.868 114.74 398.018 117.465 396.353L112.25 387.82C111.519 388.267 109.489 388.954 105.365 389.423L106.494 399.359ZM117.631 396.247C120.615 394.257 122.449 391.226 122.449 387.479H112.449C112.449 387.582 112.438 387.628 112.437 387.634C112.436 387.638 112.438 387.629 112.443 387.619C112.461 387.589 112.409 387.71 112.084 387.927L117.631 396.247ZM122.449 387.479C122.449 382.326 118.275 379.739 114.903 378.576L111.643 388.03C112.116 388.193 112.439 388.343 112.647 388.46C112.855 388.578 112.904 388.637 112.87 388.602C112.827 388.56 112.705 388.421 112.6 388.178C112.491 387.927 112.449 387.677 112.449 387.479H122.449ZM115.047 378.628C111.462 377.268 105.813 376.534 98.7111 376.15L98.1714 386.135C105.277 386.52 109.517 387.226 111.5 387.978L115.047 378.628ZM98.7111 376.15C91.4729 375.759 81.384 375.567 68.4893 375.567V385.567C81.3225 385.567 91.2016 385.759 98.1714 386.135L98.7111 376.15ZM68.4893 375.567C59.0265 375.567 50.9368 375.14 44.1891 374.308L42.9654 384.233C50.2337 385.129 58.752 385.567 68.4893 385.567V375.567ZM44.2651 374.318C37.622 373.396 32.374 372.041 28.399 370.35L24.4835 379.552C29.5325 381.7 35.7085 383.226 42.8894 384.223L44.2651 374.318ZM28.5177 370.402C24.6467 368.635 22.1878 366.628 20.7268 364.569L12.5717 370.357C15.3347 374.25 19.4038 377.234 24.3648 379.499L28.5177 370.402ZM20.7695 364.63C19.3047 362.5 18.4813 359.871 18.4813 356.519H8.48125C8.48125 361.615 9.7698 366.282 12.529 370.295L20.7695 364.63ZM18.4813 356.519C18.4813 350.471 20.4532 345.81 24.2894 342.124L17.3611 334.913C11.4053 340.636 8.48125 347.975 8.48125 356.519H18.4813ZM24.2908 342.123C28.3911 338.18 34.916 334.926 44.4135 332.735L42.165 322.991C31.6945 325.407 23.2435 329.257 17.3597 334.915L24.2908 342.123ZM44.4474 332.727C54.0191 330.448 66.1758 329.263 81.0173 329.263V319.263C65.7147 319.263 52.7194 320.478 42.1311 322.999L44.4474 332.727ZM81.0173 329.263C102.747 329.263 118.603 332.451 129.139 338.285L133.983 329.537C121.287 322.507 103.448 319.263 81.0173 319.263V329.263ZM129.182 338.308C134.458 341.162 138.144 344.505 140.523 348.23C142.886 351.929 144.129 356.267 144.129 361.415H154.129C154.129 354.563 152.445 348.317 148.951 342.847C145.474 337.404 140.377 332.995 133.94 329.513L129.182 338.308ZM149.129 356.415H111.833V366.415H149.129V356.415ZM116.777 360.666C115.828 354.404 110.148 351.157 104.334 349.423L101.476 359.006C103.868 359.72 105.306 360.489 106.102 361.131C106.816 361.706 106.872 362.048 106.89 362.164L116.777 360.666ZM104.411 349.447C98.2172 347.491 89.8438 346.623 79.5773 346.623V356.623C89.4707 356.623 96.6493 357.483 101.4 358.983L104.411 349.447ZM79.5773 346.623C69.5069 346.623 61.5922 347.194 56.1121 348.484L58.4024 358.218C62.7143 357.203 69.6796 356.623 79.5773 356.623V346.623ZM56.0904 348.489C53.343 349.148 50.7158 350.161 48.6869 351.824C46.4792 353.635 45.0573 356.181 45.0573 359.255H55.0573C55.0573 359.305 55.0397 359.437 54.9703 359.574C54.9086 359.696 54.8776 359.68 55.0277 359.557C55.3987 359.253 56.3715 358.705 58.4241 358.213L56.0904 348.489ZM45.0573 359.255C45.0573 362.606 46.7801 365.252 49.3695 366.917L54.777 358.505C54.6386 358.416 54.7471 358.451 54.8801 358.679C54.9439 358.789 54.9927 358.908 55.0232 359.026C55.0532 359.141 55.0573 359.223 55.0573 359.255H45.0573ZM49.3695 366.917C51.6022 368.352 54.7502 369.201 58.1163 369.795L59.8542 359.947C56.6923 359.389 55.2323 358.798 54.777 358.505L49.3695 366.917ZM58.2781 369.821C61.908 370.339 66.8251 370.682 72.9386 370.876L73.2559 360.881C67.2734 360.691 62.7825 360.362 59.6924 359.921L58.2781 369.821ZM72.9386 370.876C79.0595 371.071 86.7972 371.167 96.1373 371.167V361.167C86.8533 361.167 79.231 361.071 73.2559 360.881L72.9386 370.876ZM96.1373 371.167C106.257 371.167 114.735 371.688 121.62 372.698L123.071 362.804C115.555 361.701 106.562 361.167 96.1373 361.167V371.167ZM121.684 372.707C128.612 373.631 133.889 375.027 137.693 376.763L141.846 367.666C136.817 365.371 130.478 363.791 123.006 362.795L121.684 372.707ZM137.73 376.78C141.625 378.52 143.996 380.558 145.343 382.675L153.78 377.306C151.095 373.087 146.938 369.941 141.809 367.65L137.73 376.78ZM145.381 382.734C146.786 384.874 147.585 387.536 147.585 390.935H157.585C157.585 385.886 156.369 381.251 153.742 377.247L145.381 382.734ZM147.585 390.935C147.585 397.078 145.692 401.701 142.138 405.255L149.209 412.326C154.87 406.665 157.585 399.384 157.585 390.935H147.585ZM142.138 405.255C138.485 408.908 132.245 412.023 122.706 414.133L124.865 423.897C135.293 421.591 143.646 417.89 149.209 412.326L142.138 405.255ZM122.706 414.133C113.218 416.231 100.565 417.327 84.6173 417.327V427.327C100.926 427.327 114.384 426.215 124.865 423.897L122.706 414.133ZM84.6173 417.327C75.6865 417.327 67.5174 416.81 60.0983 415.789L58.7362 425.696C66.6771 426.788 75.308 427.327 84.6173 427.327V417.327ZM60.1068 415.791C52.7691 414.769 46.3159 413.295 40.7173 411.399L37.5092 420.87C43.8146 423.006 50.8974 424.605 58.7277 425.695L60.1068 415.791ZM40.7853 411.423C35.1769 409.433 30.5817 407.089 26.9173 404.447L21.0692 412.559C25.6608 415.869 31.1456 418.613 37.4412 420.847L40.7853 411.423ZM26.9783 404.492C23.2879 401.745 20.6096 398.814 18.7961 395.739L10.1824 400.819C12.7849 405.232 16.4426 409.116 21.0082 412.514L26.9783 404.492ZM18.8703 395.869C17.1855 392.806 16.3213 389.417 16.3213 385.607H6.32125C6.32125 391.012 7.56904 396.072 10.1082 400.688L18.8703 395.869ZM162.617 327.287V322.287H157.617V327.287H162.617ZM312.377 327.287H317.377V322.287H312.377V327.287ZM312.377 354.647V359.647H317.377V354.647H312.377ZM162.617 354.647H157.617V359.647H162.617V354.647ZM219.497 352.775V347.775H214.497V352.775H219.497ZM255.497 352.775H260.497V347.775H255.497V352.775ZM255.497 419.447V424.447H260.497V419.447H255.497ZM219.497 419.447H214.497V424.447H219.497V419.447ZM162.617 332.287H312.377V322.287H162.617V332.287ZM307.377 327.287V354.647H317.377V327.287H307.377ZM312.377 349.647H162.617V359.647H312.377V349.647ZM167.617 354.647V327.287H157.617V354.647H167.617ZM219.497 357.775H255.497V347.775H219.497V357.775ZM250.497 352.775V419.447H260.497V352.775H250.497ZM255.497 414.447H219.497V424.447H255.497V414.447ZM224.497 419.447V352.775H214.497V419.447H224.497ZM456.177 327.287V322.287H451.177V327.287H456.177ZM492.177 327.287H497.177V322.287H492.177V327.287ZM487.569 394.247L483.157 391.894L483.15 391.907L483.142 391.921L487.569 394.247ZM475.041 408.359L477.848 412.496L477.873 412.479L477.898 412.462L475.041 408.359ZM456.465 416.855L457.847 421.66L457.847 421.66L456.465 416.855ZM433.857 421.031L433.383 416.053L433.35 416.056L433.318 416.06L433.857 421.031ZM384.177 421.031L384.703 416.059L384.674 416.056L384.645 416.053L384.177 421.031ZM361.425 416.855L360.025 421.655L360.033 421.657L360.042 421.66L361.425 416.855ZM343.281 408.359L340.353 412.412L340.378 412.43L340.403 412.448L343.281 408.359ZM331.041 394.247L326.568 396.483L326.591 396.528L326.614 396.572L331.041 394.247ZM326.721 327.287V322.287H321.721V327.287H326.721ZM362.721 327.287H367.721V322.287H362.721V327.287ZM384.321 392.807L383.236 397.688L383.275 397.696L383.314 397.704L384.321 392.807ZM434.289 392.807L435.295 397.704L435.327 397.698L435.359 397.691L434.289 392.807ZM450.417 384.455L446.796 381.006L446.774 381.029L446.753 381.053L450.417 384.455ZM461.177 366.887V327.287H451.177V366.887H461.177ZM456.177 332.287H492.177V322.287H456.177V332.287ZM487.177 327.287V373.367H497.177V327.287H487.177ZM487.177 373.367C487.177 380.907 485.758 387.017 483.157 391.894L491.98 396.6C495.523 389.957 497.177 382.146 497.177 373.367H487.177ZM483.142 391.921C480.548 396.858 476.918 400.959 472.183 404.256L477.898 412.462C483.916 408.271 488.637 402.963 491.995 396.572L483.142 391.921ZM472.233 404.221C467.344 407.539 461.644 410.162 455.082 412.05L457.847 421.66C465.301 419.516 471.985 416.474 477.848 412.496L472.233 404.221ZM455.082 412.05C448.402 413.971 441.173 415.311 433.383 416.053L434.331 426.008C442.669 425.214 450.512 423.77 457.847 421.66L455.082 412.05ZM433.318 416.06C425.534 416.904 417.602 417.327 409.521 417.327V427.327C417.951 427.327 426.243 426.886 434.396 426.002L433.318 416.06ZM409.521 417.327C400.949 417.327 392.677 416.903 384.703 416.059L383.65 426.003C391.996 426.887 400.62 427.327 409.521 427.327V417.327ZM384.645 416.053C376.757 415.31 369.482 413.97 362.807 412.05L360.042 421.66C367.383 423.772 375.276 425.215 383.708 426.009L384.645 416.053ZM362.825 412.055C356.37 410.172 350.836 407.561 346.158 404.27L340.403 412.448C346.094 416.452 352.655 419.505 360.025 421.655L362.825 412.055ZM346.208 404.305C341.651 401.014 338.084 396.902 335.467 391.921L326.614 396.572C329.95 402.92 334.542 408.216 340.353 412.412L346.208 404.305ZM335.513 392.011C333.06 387.105 331.721 380.952 331.721 373.367H321.721C321.721 382.101 323.261 389.868 326.568 396.483L335.513 392.011ZM331.721 373.367V327.287H321.721V373.367H331.721ZM326.721 332.287H362.721V322.287H326.721V332.287ZM357.721 327.287V366.887H367.721V327.287H357.721ZM357.721 366.887C357.721 375.327 359.78 382.588 364.673 387.857L372.001 381.053C369.405 378.257 367.721 373.807 367.721 366.887H357.721ZM364.673 387.857C369.28 392.819 375.617 395.995 383.236 397.688L385.405 387.926C379.2 386.547 374.881 384.154 372.001 381.053L364.673 387.857ZM383.314 397.704C390.749 399.232 399.505 399.967 409.521 399.967V389.967C399.952 389.967 391.908 389.261 385.327 387.909L383.314 397.704ZM409.521 399.967C419.26 399.967 427.868 399.23 435.295 397.704L433.282 387.909C426.693 389.263 418.789 389.967 409.521 389.967V399.967ZM435.359 397.691C443.062 396.002 449.46 392.833 454.081 387.857L446.753 381.053C443.885 384.141 439.531 386.539 433.218 387.923L435.359 397.691ZM454.037 387.903C459.053 382.637 461.177 375.357 461.177 366.887H451.177C451.177 373.776 449.46 378.209 446.796 381.006L454.037 387.903ZM648.138 331.031L646.721 335.826L646.721 335.826L648.138 331.031ZM668.01 341.255L664.665 344.971L664.665 344.971L668.01 341.255ZM678.09 356.087L673.363 357.717L673.38 357.766L673.398 357.815L678.09 356.087ZM677.802 390.791L682.438 392.662L682.444 392.648L682.45 392.634L677.802 390.791ZM666.858 405.479L663.621 401.667L663.604 401.683L663.586 401.698L666.858 405.479ZM646.842 415.703L645.41 410.912L645.402 410.914L645.395 410.917L646.842 415.703ZM512.346 419.447H507.346V424.447H512.346V419.447ZM512.346 327.287V322.287H507.346V327.287H512.346ZM548.346 390.647H543.346V395.647H548.346V390.647ZM628.266 389.639L629.149 394.56L629.21 394.549L629.27 394.537L628.266 389.639ZM637.194 386.327L634.544 382.087L634.503 382.112L634.462 382.139L637.194 386.327ZM642.09 380.999L637.579 378.842L637.558 378.885L637.538 378.93L642.09 380.999ZM642.09 365.879L637.504 367.872L637.558 367.995L637.617 368.115L642.09 365.879ZM637.194 360.407L634.462 364.595L634.503 364.621L634.544 364.647L637.194 360.407ZM628.266 357.239L627.261 362.137L627.321 362.149L627.382 362.16L628.266 357.239ZM548.346 356.087V351.087H543.346V356.087H548.346ZM616.026 332.287C628.709 332.287 638.894 333.513 646.721 335.826L649.554 326.236C640.485 323.556 629.262 322.287 616.026 322.287V332.287ZM646.721 335.826C654.7 338.183 660.583 341.297 664.665 344.971L671.354 337.538C665.837 332.572 658.471 328.87 649.554 326.236L646.721 335.826ZM664.665 344.971C668.897 348.78 671.745 353.026 673.363 357.717L682.817 354.457C680.594 348.012 676.722 342.369 671.354 337.538L664.665 344.971ZM673.398 357.815C675.202 362.713 676.114 367.886 676.114 373.367H686.114C686.114 366.751 685.009 360.404 682.781 354.358L673.398 357.815ZM676.114 373.367C676.114 378.79 675.127 383.972 673.154 388.948L682.45 392.634C684.892 386.473 686.114 380.04 686.114 373.367H676.114ZM673.165 388.92C671.298 393.548 668.174 397.802 663.621 401.667L670.094 409.29C675.717 404.516 679.89 398.978 682.438 392.662L673.165 388.92ZM663.586 401.698C659.271 405.432 653.291 408.557 645.41 410.912L648.273 420.493C657.096 417.857 664.46 414.166 670.13 409.26L663.586 401.698ZM645.395 410.917C637.76 413.225 628.013 414.447 616.026 414.447V424.447C628.614 424.447 639.411 423.173 648.289 420.489L645.395 410.917ZM616.026 414.447H512.346V424.447H616.026V414.447ZM517.346 419.447V327.287H507.346V419.447H517.346ZM512.346 332.287H616.026V322.287H512.346V332.287ZM548.346 395.647H614.586V385.647H548.346V395.647ZM614.586 395.647C620.147 395.647 625.022 395.301 629.149 394.56L627.382 384.717C624.022 385.321 619.776 385.647 614.586 385.647V395.647ZM629.27 394.537C633.376 393.695 637.011 392.415 639.925 390.515L634.462 382.139C632.96 383.118 630.643 384.047 627.261 384.741L629.27 394.537ZM639.844 390.567C642.835 388.697 645.209 386.219 646.641 383.068L637.538 378.93C637.05 380.002 636.16 381.077 634.544 382.087L639.844 390.567ZM646.6 383.156C648.031 380.166 648.674 376.862 648.674 373.367H638.674C638.674 375.631 638.261 377.416 637.579 378.842L646.6 383.156ZM648.674 373.367C648.674 369.878 648.033 366.585 646.562 363.643L637.617 368.115C638.258 369.397 638.674 371.095 638.674 373.367H648.674ZM646.675 363.885C645.261 360.634 642.891 358.071 639.844 356.167L634.544 364.647C636.104 365.622 636.998 366.708 637.504 367.872L646.675 363.885ZM639.925 356.219C636.966 354.289 633.283 353.059 629.149 352.317L627.382 362.16C630.736 362.762 633.005 363.645 634.462 364.595L639.925 356.219ZM629.27 352.341C625.093 351.484 620.175 351.087 614.586 351.087V361.087C619.749 361.087 623.951 361.458 627.261 362.137L629.27 352.341ZM614.586 351.087H548.346V361.087H614.586V351.087ZM543.346 356.087V390.647H553.346V356.087H543.346ZM701.959 327.287V322.287H696.959V327.287H701.959ZM737.959 327.287H742.959V322.287H737.959V327.287ZM737.959 419.447V424.447H742.959V419.447H737.959ZM701.959 419.447H696.959V424.447H701.959V419.447ZM701.959 332.287H737.959V322.287H701.959V332.287ZM732.959 327.287V419.447H742.959V327.287H732.959ZM737.959 414.447H701.959V424.447H737.959V414.447ZM706.959 419.447V327.287H696.959V419.447H706.959ZM795.404 416.855L793.997 421.653L794.013 421.658L794.03 421.662L795.404 416.855ZM767.468 400.439L763.543 403.537L763.566 403.566L763.589 403.594L767.468 400.439ZM767.468 346.439L763.568 343.309L763.563 343.315L767.468 346.439ZM795.404 330.023L796.777 334.83L796.794 334.826L796.81 334.821L795.404 330.023ZM896.492 330.023L895.085 334.821L895.101 334.826L895.118 334.83L896.492 330.023ZM924.284 346.439L920.359 349.537L920.382 349.566L920.405 349.594L924.284 346.439ZM924.284 400.439L920.384 397.309L920.379 397.315L924.284 400.439ZM896.492 416.855L897.865 421.662L897.882 421.658L897.898 421.653L896.492 416.855ZM871.58 393.239L872.369 398.176L872.401 398.171L872.433 398.165L871.58 393.239ZM888.284 386.759L891.36 390.7L891.389 390.677L891.419 390.654L888.284 386.759ZM888.284 360.119L885.148 364.014L885.178 364.037L885.207 364.06L888.284 360.119ZM871.58 353.639L870.726 358.565L870.758 358.571L870.79 358.576L871.58 353.639ZM819.884 353.639L820.653 358.579L820.679 358.575L820.705 358.571L819.884 353.639ZM802.46 360.119L805.445 364.13L805.452 364.124L805.46 364.119L802.46 360.119ZM802.46 386.759L799.415 390.725L799.467 390.765L799.519 390.802L802.46 386.759ZM819.884 393.239L819.051 398.169L819.087 398.175L819.123 398.181L819.884 393.239ZM845.948 417.327C825.25 417.327 808.918 415.516 796.777 412.047L794.03 421.662C807.425 425.489 824.789 427.327 845.948 427.327V417.327ZM796.81 412.057C784.61 408.479 776.342 403.426 771.346 397.284L763.589 403.594C770.305 411.852 780.661 417.742 793.997 421.653L796.81 412.057ZM771.392 397.341C766.435 391.062 763.828 383.179 763.828 373.367H753.828C753.828 385.059 756.98 395.224 763.543 403.537L771.392 397.341ZM763.828 373.367C763.828 363.553 766.435 355.733 771.372 349.562L763.563 343.315C756.98 351.545 753.828 361.677 753.828 373.367H763.828ZM771.367 349.569C776.355 343.354 784.602 338.309 796.777 334.83L794.03 325.215C780.669 329.033 770.292 334.931 763.568 343.309L771.367 349.569ZM796.81 334.821C808.938 331.265 825.257 329.407 845.948 329.407V319.407C824.782 319.407 807.405 321.293 793.997 325.225L796.81 334.821ZM845.948 329.407C866.638 329.407 882.957 331.265 895.085 334.821L897.898 325.225C884.49 321.293 867.113 319.407 845.948 319.407V329.407ZM895.118 334.83C907.294 338.309 915.474 343.349 920.359 349.537L928.208 343.341C921.573 334.936 911.225 329.032 897.865 325.215L895.118 334.83ZM920.405 349.594C925.423 355.764 928.068 363.573 928.068 373.367H938.068C938.068 361.657 934.856 351.513 928.163 343.284L920.405 349.594ZM928.068 373.367C928.068 383.159 925.424 391.031 920.384 397.309L928.183 403.569C934.856 395.255 938.068 385.078 938.068 373.367H928.068ZM920.379 397.315C915.487 403.431 907.286 408.479 895.085 412.057L897.898 421.653C911.233 417.742 921.56 411.847 928.188 403.562L920.379 397.315ZM895.118 412.047C882.977 415.516 866.645 417.327 845.948 417.327V427.327C867.106 427.327 884.47 425.489 897.865 421.662L895.118 412.047ZM845.948 399.967C856.014 399.967 864.835 399.382 872.369 398.176L870.79 388.302C863.924 389.4 855.657 389.967 845.948 389.967V399.967ZM872.433 398.165C880.095 396.837 886.544 394.459 891.36 390.7L885.207 382.817C882.151 385.203 877.464 387.144 870.726 388.312L872.433 398.165ZM891.419 390.654C896.708 386.396 899.188 380.401 899.188 373.367H889.188C889.188 377.852 887.731 380.785 885.148 382.864L891.419 390.654ZM899.188 373.367C899.188 366.334 896.706 360.35 891.36 356.177L885.207 364.06C887.733 366.032 889.188 368.879 889.188 373.367H899.188ZM891.419 356.224C886.57 352.321 880.071 349.934 872.369 348.702L870.79 358.576C877.488 359.648 882.125 361.581 885.148 364.014L891.419 356.224ZM872.433 348.712C864.873 347.402 856.029 346.767 845.948 346.767V356.767C855.642 356.767 863.886 357.38 870.726 358.565L872.433 348.712ZM845.948 346.767C835.862 346.767 826.888 347.402 819.062 348.707L820.705 358.571C827.855 357.379 836.257 356.767 845.948 356.767V346.767ZM819.114 348.698C811.229 349.927 804.555 352.297 799.46 356.119L805.46 364.119C808.812 361.604 813.754 359.654 820.653 358.579L819.114 348.698ZM799.474 356.108C793.914 360.246 791.268 366.243 791.268 373.367H801.268C801.268 368.97 802.749 366.136 805.445 364.13L799.474 356.108ZM791.268 373.367C791.268 380.49 793.911 386.501 799.415 390.725L805.504 382.792C802.752 380.681 801.268 377.763 801.268 373.367H791.268ZM799.519 390.802C804.579 394.483 811.206 396.844 819.051 398.169L820.716 388.309C813.777 387.137 808.788 385.179 805.4 382.715L799.519 390.802ZM819.123 398.181C826.925 399.381 835.877 399.967 845.948 399.967V389.967C836.242 389.967 827.818 389.401 820.644 388.297L819.123 398.181Z" fill="#FFFCEB"/>
<path d="M11.3213 513.16V508.16H6.32125V513.16H11.3213ZM50.6333 513.16L55.3767 511.579L54.2371 508.16H50.6333V513.16ZM56.5373 518.344L54.519 522.919L54.576 522.944L54.6335 522.967L56.5373 518.344ZM69.6413 521.512L68.9463 526.463L68.9942 526.47L69.0422 526.476L69.6413 521.512ZM105.929 521.944L106.392 526.923L106.443 526.918L106.494 526.912L105.929 521.944ZM114.857 519.64L117.465 523.906L117.549 523.855L117.631 523.8L114.857 519.64ZM113.273 510.856L111.5 515.531L111.571 515.558L111.643 515.583L113.273 510.856ZM98.4413 508.696L98.1714 513.689L98.1714 513.689L98.4413 508.696ZM43.5773 506.824L42.8894 511.776L42.9274 511.782L42.9654 511.786L43.5773 506.824ZM26.4413 502.504L24.3648 507.052L24.4238 507.079L24.4835 507.105L26.4413 502.504ZM16.6493 495.016L12.529 497.849L12.5502 497.879L12.5717 497.91L16.6493 495.016ZM20.8253 466.072L24.2894 469.678L24.2908 469.676L20.8253 466.072ZM43.2892 455.416L44.4135 460.288L44.4305 460.284L44.4474 460.28L43.2892 455.416ZM131.561 461.464L129.139 465.838L129.161 465.85L129.182 465.862L131.561 461.464ZM149.129 488.968V493.968H154.129V488.968H149.129ZM111.833 488.968L106.89 489.717L107.534 493.968H111.833V488.968ZM102.905 481.768L101.4 486.536L101.438 486.548L101.476 486.559L102.905 481.768ZM57.2573 480.904L56.1121 476.037L56.1012 476.039L56.0904 476.042L57.2573 480.904ZM58.9853 492.424L58.1163 497.348L58.197 497.362L58.2781 497.374L58.9853 492.424ZM122.345 495.304L121.62 500.251L121.652 500.256L121.684 500.26L122.345 495.304ZM139.769 499.768L137.693 504.316L137.711 504.325L137.73 504.333L139.769 499.768ZM149.561 507.544L145.343 510.228L145.362 510.258L145.381 510.287L149.561 507.544ZM145.673 536.344L149.209 539.88L149.209 539.88L145.673 536.344ZM123.785 546.568L124.865 551.45L124.865 551.45L123.785 546.568ZM59.4173 548.296L58.7277 553.248L58.7362 553.249L59.4173 548.296ZM39.1133 543.688L37.4412 548.4L37.4751 548.412L37.5092 548.424L39.1133 543.688ZM23.9933 536.056L21.0082 540.067L21.0386 540.09L21.0692 540.112L23.9933 536.056ZM14.4893 525.832L10.1082 528.242L10.1443 528.307L10.1824 528.372L14.4893 525.832ZM11.3213 518.16H50.6333V508.16H11.3213V518.16ZM45.8898 514.741C47.2322 518.768 50.8028 521.279 54.519 522.919L58.5555 513.769C55.7437 512.529 55.3783 511.584 55.3767 511.579L45.8898 514.741ZM54.6335 522.967C58.4389 524.534 63.2647 525.666 68.9463 526.463L70.3362 516.561C65.0738 515.822 61.1636 514.842 58.441 513.721L54.6335 522.967ZM69.0422 526.476C74.8577 527.178 81.497 527.52 88.9373 527.52V517.52C81.7855 517.52 75.5608 517.19 70.2404 516.548L69.0422 526.476ZM88.9373 527.52C96.1973 527.52 102.039 527.328 106.392 526.923L105.466 516.965C101.564 517.328 96.0772 517.52 88.9373 517.52V527.52ZM106.494 526.912C110.817 526.421 114.74 525.571 117.465 523.906L112.25 515.374C111.519 515.821 109.489 516.507 105.365 516.976L106.494 526.912ZM117.631 523.8C120.615 521.811 122.449 518.779 122.449 515.032H112.449C112.449 515.135 112.438 515.181 112.437 515.187C112.436 515.191 112.438 515.182 112.443 515.173C112.461 515.142 112.409 515.263 112.084 515.48L117.631 523.8ZM122.449 515.032C122.449 509.88 118.275 507.292 114.903 506.129L111.643 515.583C112.116 515.746 112.439 515.897 112.647 516.014C112.855 516.131 112.904 516.19 112.87 516.156C112.827 516.113 112.705 515.974 112.6 515.731C112.491 515.48 112.449 515.231 112.449 515.032H122.449ZM115.047 506.181C111.462 504.821 105.813 504.087 98.7111 503.703L98.1714 513.689C105.277 514.073 109.517 514.779 111.5 515.531L115.047 506.181ZM98.7111 503.703C91.4729 503.312 81.384 503.12 68.4893 503.12V513.12C81.3225 513.12 91.2016 513.312 98.1714 513.689L98.7111 503.703ZM68.4893 503.12C59.0265 503.12 50.9368 502.693 44.1891 501.862L42.9654 511.786C50.2337 512.683 58.752 513.12 68.4893 513.12V503.12ZM44.2651 501.872C37.622 500.949 32.374 499.595 28.399 497.903L24.4835 507.105C29.5325 509.253 35.7085 510.779 42.8894 511.776L44.2651 501.872ZM28.5177 497.956C24.6467 496.188 22.1878 494.181 20.7268 492.122L12.5717 497.91C15.3347 501.803 19.4038 504.788 24.3648 507.052L28.5177 497.956ZM20.7695 492.183C19.3047 490.053 18.4813 487.424 18.4813 484.072H8.48125C8.48125 489.168 9.7698 493.835 12.529 497.849L20.7695 492.183ZM18.4813 484.072C18.4813 478.024 20.4532 473.363 24.2894 469.678L17.3611 462.466C11.4053 468.189 8.48125 475.528 8.48125 484.072H18.4813ZM24.2908 469.676C28.3911 465.734 34.916 462.48 44.4135 460.288L42.165 450.544C31.6945 452.96 23.2435 456.81 17.3597 462.468L24.2908 469.676ZM44.4474 460.28C54.0191 458.001 66.1758 456.816 81.0173 456.816V446.816C65.7147 446.816 52.7194 448.031 42.1311 450.552L44.4474 460.28ZM81.0173 456.816C102.747 456.816 118.603 460.004 129.139 465.838L133.983 457.09C121.287 450.06 103.448 446.816 81.0173 446.816V456.816ZM129.182 465.862C134.458 468.716 138.144 472.058 140.523 475.784C142.886 479.482 144.129 483.82 144.129 488.968H154.129C154.129 482.116 152.445 475.87 148.951 470.4C145.474 464.958 140.377 460.548 133.94 457.066L129.182 465.862ZM149.129 483.968H111.833V493.968H149.129V483.968ZM116.777 488.219C115.828 481.957 110.148 478.711 104.334 476.977L101.476 486.559C103.868 487.273 105.306 488.042 106.102 488.684C106.816 489.259 106.872 489.601 106.89 489.717L116.777 488.219ZM104.411 477C98.2172 475.044 89.8438 474.176 79.5773 474.176V484.176C89.4707 484.176 96.6493 485.036 101.4 486.536L104.411 477ZM79.5773 474.176C69.5069 474.176 61.5922 474.747 56.1121 476.037L58.4024 485.771C62.7143 484.757 69.6796 484.176 79.5773 484.176V474.176ZM56.0904 476.042C53.343 476.701 50.7158 477.714 48.6869 479.378C46.4792 481.188 45.0573 483.734 45.0573 486.808H55.0573C55.0573 486.858 55.0397 486.99 54.9703 487.127C54.9086 487.249 54.8776 487.233 55.0277 487.11C55.3987 486.806 56.3715 486.259 58.4241 485.766L56.0904 476.042ZM45.0573 486.808C45.0573 490.159 46.7801 492.805 49.3695 494.47L54.777 486.058C54.6386 485.969 54.7471 486.005 54.8801 486.233C54.9439 486.342 54.9927 486.462 55.0232 486.579C55.0532 486.695 55.0573 486.776 55.0573 486.808H45.0573ZM49.3695 494.47C51.6022 495.905 54.7502 496.754 58.1163 497.348L59.8542 487.5C56.6923 486.942 55.2323 486.351 54.777 486.058L49.3695 494.47ZM58.2781 497.374C61.908 497.892 66.8251 498.235 72.9386 498.429L73.2559 488.435C67.2734 488.245 62.7825 487.916 59.6924 487.474L58.2781 497.374ZM72.9386 498.429C79.0595 498.624 86.7972 498.72 96.1373 498.72V488.72C86.8533 488.72 79.231 488.624 73.2559 488.435L72.9386 498.429ZM96.1373 498.72C106.257 498.72 114.735 499.241 121.62 500.251L123.071 490.357C115.555 489.255 106.562 488.72 96.1373 488.72V498.72ZM121.684 500.26C128.612 501.184 133.889 502.58 137.693 504.316L141.846 495.22C136.817 492.924 130.478 491.344 123.006 490.348L121.684 500.26ZM137.73 504.333C141.625 506.074 143.996 508.111 145.343 510.228L153.78 504.86C151.095 500.641 146.938 497.494 141.809 495.203L137.73 504.333ZM145.381 510.287C146.786 512.428 147.585 515.089 147.585 518.488H157.585C157.585 513.439 156.369 508.804 153.742 504.801L145.381 510.287ZM147.585 518.488C147.585 524.631 145.692 529.254 142.138 532.808L149.209 539.88C154.87 534.218 157.585 526.937 157.585 518.488H147.585ZM142.138 532.808C138.485 536.461 132.245 539.576 122.706 541.686L124.865 551.45C135.293 549.144 143.646 545.443 149.209 539.88L142.138 532.808ZM122.706 541.686C113.218 543.784 100.565 544.88 84.6173 544.88V554.88C100.926 554.88 114.384 553.768 124.865 551.45L122.706 541.686ZM84.6173 544.88C75.6865 544.88 67.5174 544.363 60.0983 543.343L58.7362 553.249C66.6771 554.341 75.308 554.88 84.6173 554.88V544.88ZM60.1068 543.344C52.7691 542.322 46.3159 540.849 40.7173 538.952L37.5092 548.424C43.8146 550.559 50.8974 552.158 58.7277 553.248L60.1068 543.344ZM40.7853 538.976C35.1769 536.986 30.5817 534.642 26.9173 532L21.0692 540.112C25.6608 543.422 31.1456 546.166 37.4412 548.4L40.7853 538.976ZM26.9783 532.045C23.2879 529.298 20.6096 526.367 18.7961 523.292L10.1824 528.372C12.7849 532.785 16.4426 536.67 21.0082 540.067L26.9783 532.045ZM18.8703 523.422C17.1855 520.359 16.3213 516.97 16.3213 513.16H6.32125C6.32125 518.566 7.56904 523.625 10.1082 528.242L18.8703 523.422ZM162.617 454.84V449.84H157.617V454.84H162.617ZM312.377 454.84H317.377V449.84H312.377V454.84ZM312.377 482.2V487.2H317.377V482.2H312.377ZM162.617 482.2H157.617V487.2H162.617V482.2ZM219.497 480.328V475.328H214.497V480.328H219.497ZM255.497 480.328H260.497V475.328H255.497V480.328ZM255.497 547V552H260.497V547H255.497ZM219.497 547H214.497V552H219.497V547ZM162.617 459.84H312.377V449.84H162.617V459.84ZM307.377 454.84V482.2H317.377V454.84H307.377ZM312.377 477.2H162.617V487.2H312.377V477.2ZM167.617 482.2V454.84H157.617V482.2H167.617ZM219.497 485.328H255.497V475.328H219.497V485.328ZM250.497 480.328V547H260.497V480.328H250.497ZM255.497 542H219.497V552H255.497V542ZM224.497 547V480.328H214.497V547H224.497ZM456.177 454.84V449.84H451.177V454.84H456.177ZM492.177 454.84H497.177V449.84H492.177V454.84ZM487.569 521.8L483.157 519.447L483.15 519.461L483.142 519.474L487.569 521.8ZM475.041 535.912L477.848 540.049L477.873 540.032L477.898 540.015L475.041 535.912ZM456.465 544.408L457.847 549.213L457.847 549.213L456.465 544.408ZM433.857 548.584L433.383 543.607L433.35 543.61L433.318 543.613L433.857 548.584ZM384.177 548.584L384.703 543.612L384.674 543.609L384.645 543.606L384.177 548.584ZM361.425 544.408L360.025 549.208L360.033 549.211L360.042 549.213L361.425 544.408ZM343.281 535.912L340.353 539.965L340.378 539.983L340.403 540.001L343.281 535.912ZM331.041 521.8L326.568 524.036L326.591 524.081L326.614 524.126L331.041 521.8ZM326.721 454.84V449.84H321.721V454.84H326.721ZM362.721 454.84H367.721V449.84H362.721V454.84ZM384.321 520.36L383.236 525.241L383.275 525.25L383.314 525.258L384.321 520.36ZM434.289 520.36L435.295 525.258L435.327 525.251L435.359 525.244L434.289 520.36ZM450.417 512.008L446.796 508.56L446.774 508.583L446.753 508.606L450.417 512.008ZM461.177 494.44V454.84H451.177V494.44H461.177ZM456.177 459.84H492.177V449.84H456.177V459.84ZM487.177 454.84V500.92H497.177V454.84H487.177ZM487.177 500.92C487.177 508.461 485.758 514.57 483.157 519.447L491.98 524.153C495.523 517.51 497.177 509.699 497.177 500.92H487.177ZM483.142 519.474C480.548 524.411 476.918 528.512 472.183 531.809L477.898 540.015C483.916 535.824 488.637 530.517 491.995 524.126L483.142 519.474ZM472.233 531.775C467.344 535.092 461.644 537.715 455.082 539.603L457.847 549.213C465.301 547.069 471.985 544.028 477.848 540.049L472.233 531.775ZM455.082 539.603C448.402 541.525 441.173 542.865 433.383 543.607L434.331 553.561C442.669 552.767 450.512 551.323 457.847 549.213L455.082 539.603ZM433.318 543.613C425.534 544.457 417.602 544.88 409.521 544.88V554.88C417.951 554.88 426.243 554.439 434.396 553.555L433.318 543.613ZM409.521 544.88C400.949 544.88 392.677 544.456 384.703 543.612L383.65 553.556C391.996 554.44 400.62 554.88 409.521 554.88V544.88ZM384.645 543.606C376.757 542.864 369.482 541.523 362.807 539.603L360.042 549.213C367.383 551.325 375.276 552.768 383.708 553.562L384.645 543.606ZM362.825 539.608C356.37 537.725 350.836 535.114 346.158 531.823L340.403 540.001C346.094 544.006 352.655 547.059 360.025 549.208L362.825 539.608ZM346.208 531.859C341.651 528.567 338.084 524.455 335.467 519.474L326.614 524.126C329.95 530.473 334.542 535.769 340.353 539.965L346.208 531.859ZM335.513 519.564C333.06 514.659 331.721 508.505 331.721 500.92H321.721C321.721 509.655 323.261 517.421 326.568 524.036L335.513 519.564ZM331.721 500.92V454.84H321.721V500.92H331.721ZM326.721 459.84H362.721V449.84H326.721V459.84ZM357.721 454.84V494.44H367.721V454.84H357.721ZM357.721 494.44C357.721 502.88 359.78 510.142 364.673 515.41L372.001 508.606C369.405 505.81 367.721 501.36 367.721 494.44H357.721ZM364.673 515.41C369.28 520.372 375.617 523.548 383.236 525.241L385.405 515.479C379.2 514.1 374.881 511.708 372.001 508.606L364.673 515.41ZM383.314 525.258C390.749 526.785 399.505 527.52 409.521 527.52V517.52C399.952 517.52 391.908 516.815 385.327 515.462L383.314 525.258ZM409.521 527.52C419.26 527.52 427.868 526.784 435.295 525.258L433.282 515.462C426.693 516.816 418.789 517.52 409.521 517.52V527.52ZM435.359 525.244C443.062 523.556 449.46 520.386 454.081 515.41L446.753 508.606C443.885 511.694 439.531 514.092 433.218 515.476L435.359 525.244ZM454.037 515.456C459.053 510.19 461.177 502.911 461.177 494.44H451.177C451.177 501.329 449.46 505.762 446.796 508.56L454.037 515.456ZM648.138 458.584L646.721 463.379L646.721 463.379L648.138 458.584ZM668.01 468.808L664.665 472.524L664.665 472.524L668.01 468.808ZM678.09 483.64L673.363 485.27L673.38 485.319L673.398 485.369L678.09 483.64ZM677.802 518.344L682.438 520.215L682.444 520.201L682.45 520.187L677.802 518.344ZM666.858 533.032L663.621 529.221L663.604 529.236L663.586 529.251L666.858 533.032ZM646.842 543.256L645.41 538.465L645.402 538.468L645.395 538.47L646.842 543.256ZM512.346 547H507.346V552H512.346V547ZM512.346 454.84V449.84H507.346V454.84H512.346ZM548.346 518.2H543.346V523.2H548.346V518.2ZM628.266 517.192L629.149 522.113L629.21 522.102L629.27 522.09L628.266 517.192ZM637.194 513.88L634.544 509.64L634.503 509.666L634.462 509.692L637.194 513.88ZM642.09 508.552L637.579 506.395L637.558 506.439L637.538 506.483L642.09 508.552ZM642.09 493.432L637.504 495.426L637.558 495.548L637.617 495.668L642.09 493.432ZM637.194 487.96L634.462 492.148L634.503 492.174L634.544 492.2L637.194 487.96ZM628.266 484.792L627.261 489.69L627.321 489.702L627.382 489.713L628.266 484.792ZM548.346 483.64V478.64H543.346V483.64H548.346ZM616.026 459.84C628.709 459.84 638.894 461.067 646.721 463.379L649.554 453.789C640.485 451.109 629.262 449.84 616.026 449.84V459.84ZM646.721 463.379C654.7 465.737 660.583 468.85 664.665 472.524L671.354 465.092C665.837 460.126 658.471 456.423 649.554 453.789L646.721 463.379ZM664.665 472.524C668.897 476.333 671.745 480.579 673.363 485.27L682.817 482.01C680.594 475.565 676.722 469.923 671.354 465.092L664.665 472.524ZM673.398 485.369C675.202 490.267 676.114 495.44 676.114 500.92H686.114C686.114 494.304 685.009 487.957 682.781 481.911L673.398 485.369ZM676.114 500.92C676.114 506.343 675.127 511.525 673.154 516.501L682.45 520.187C684.892 514.027 686.114 507.593 686.114 500.92H676.114ZM673.165 516.473C671.298 521.101 668.174 525.355 663.621 529.221L670.094 536.843C675.717 532.069 679.89 526.531 682.438 520.215L673.165 516.473ZM663.586 529.251C659.271 532.985 653.291 536.11 645.41 538.465L648.273 548.047C657.096 545.41 664.46 541.719 670.13 536.813L663.586 529.251ZM645.395 538.47C637.76 540.778 628.013 542 616.026 542V552C628.614 552 639.411 550.726 648.289 548.042L645.395 538.47ZM616.026 542H512.346V552H616.026V542ZM517.346 547V454.84H507.346V547H517.346ZM512.346 459.84H616.026V449.84H512.346V459.84ZM548.346 523.2H614.586V513.2H548.346V523.2ZM614.586 523.2C620.147 523.2 625.022 522.854 629.149 522.113L627.382 512.271C624.022 512.874 619.776 513.2 614.586 513.2V523.2ZM629.27 522.09C633.376 521.248 637.011 519.968 639.925 518.068L634.462 509.692C632.96 510.672 630.643 511.6 627.261 512.294L629.27 522.09ZM639.844 518.12C642.835 516.25 645.209 513.773 646.641 510.621L637.538 506.483C637.05 507.555 636.16 508.63 634.544 509.64L639.844 518.12ZM646.6 510.709C648.031 507.719 648.674 504.416 648.674 500.92H638.674C638.674 503.184 638.261 504.969 637.579 506.395L646.6 510.709ZM648.674 500.92C648.674 497.432 648.033 494.138 646.562 491.196L637.617 495.668C638.258 496.95 638.674 498.648 638.674 500.92H648.674ZM646.675 491.438C645.261 488.187 642.891 485.624 639.844 483.72L634.544 492.2C636.104 493.176 636.998 494.261 637.504 495.426L646.675 491.438ZM639.925 483.772C636.966 481.842 633.283 480.613 629.149 479.871L627.382 489.713C630.736 490.315 633.005 491.198 634.462 492.148L639.925 483.772ZM629.27 479.894C625.093 479.037 620.175 478.64 614.586 478.64V488.64C619.749 488.64 623.951 489.011 627.261 489.69L629.27 479.894ZM614.586 478.64H548.346V488.64H614.586V478.64ZM543.346 483.64V518.2H553.346V483.64H543.346ZM701.959 454.84V449.84H696.959V454.84H701.959ZM737.959 454.84H742.959V449.84H737.959V454.84ZM737.959 547V552H742.959V547H737.959ZM701.959 547H696.959V552H701.959V547ZM701.959 459.84H737.959V449.84H701.959V459.84ZM732.959 454.84V547H742.959V454.84H732.959ZM737.959 542H701.959V552H737.959V542ZM706.959 547V454.84H696.959V547H706.959ZM795.404 544.408L793.997 549.206L794.013 549.211L794.03 549.216L795.404 544.408ZM767.468 527.992L763.543 531.09L763.566 531.119L763.589 531.147L767.468 527.992ZM767.468 473.992L763.568 470.862L763.563 470.869L767.468 473.992ZM795.404 457.576L796.777 462.384L796.794 462.379L796.81 462.374L795.404 457.576ZM896.492 457.576L895.085 462.374L895.101 462.379L895.118 462.384L896.492 457.576ZM924.284 473.992L920.359 477.09L920.382 477.119L920.405 477.147L924.284 473.992ZM924.284 527.992L920.384 524.862L920.379 524.869L924.284 527.992ZM896.492 544.408L897.865 549.216L897.882 549.211L897.898 549.206L896.492 544.408ZM871.58 520.792L872.369 525.729L872.401 525.724L872.433 525.719L871.58 520.792ZM888.284 514.312L891.36 518.254L891.389 518.231L891.419 518.207L888.284 514.312ZM888.284 487.672L885.148 491.567L885.178 491.591L885.207 491.614L888.284 487.672ZM871.58 481.192L870.726 486.119L870.758 486.124L870.79 486.129L871.58 481.192ZM819.884 481.192L820.653 486.132L820.679 486.128L820.705 486.124L819.884 481.192ZM802.46 487.672L805.445 491.683L805.452 491.678L805.46 491.672L802.46 487.672ZM802.46 514.312L799.415 518.279L799.467 518.318L799.519 518.356L802.46 514.312ZM819.884 520.792L819.051 525.722L819.087 525.728L819.123 525.734L819.884 520.792ZM845.948 544.88C825.25 544.88 808.918 543.069 796.777 539.6L794.03 549.216C807.425 553.043 824.789 554.88 845.948 554.88V544.88ZM796.81 539.61C784.61 536.033 776.342 530.979 771.346 524.837L763.589 531.147C770.305 539.405 780.661 545.295 793.997 549.206L796.81 539.61ZM771.392 524.894C766.435 518.615 763.828 510.732 763.828 500.92H753.828C753.828 512.612 756.98 522.777 763.543 531.09L771.392 524.894ZM763.828 500.92C763.828 491.106 766.435 483.286 771.372 477.115L763.563 470.869C756.98 479.098 753.828 489.23 753.828 500.92H763.828ZM771.367 477.122C776.355 470.907 784.602 465.862 796.777 462.384L794.03 452.768C780.669 456.586 770.292 462.485 763.568 470.862L771.367 477.122ZM796.81 462.374C808.938 458.818 825.257 456.96 845.948 456.96V446.96C824.782 446.96 807.405 448.846 793.997 452.778L796.81 462.374ZM845.948 456.96C866.638 456.96 882.957 458.818 895.085 462.374L897.898 452.778C884.49 448.846 867.113 446.96 845.948 446.96V456.96ZM895.118 462.384C907.294 465.862 915.474 470.902 920.359 477.09L928.208 470.894C921.573 462.49 911.225 456.585 897.865 452.768L895.118 462.384ZM920.405 477.147C925.423 483.317 928.068 491.126 928.068 500.92H938.068C938.068 489.21 934.856 479.067 928.163 470.837L920.405 477.147ZM928.068 500.92C928.068 510.712 925.424 518.584 920.384 524.862L928.183 531.122C934.856 522.808 938.068 512.632 938.068 500.92H928.068ZM920.379 524.869C915.487 530.984 907.286 536.032 895.085 539.61L897.898 549.206C911.233 545.296 921.56 539.4 928.188 531.115L920.379 524.869ZM895.118 539.6C882.977 543.069 866.645 544.88 845.948 544.88V554.88C867.106 554.88 884.47 553.043 897.865 549.216L895.118 539.6ZM845.948 527.52C856.014 527.52 864.835 526.935 872.369 525.729L870.79 515.855C863.924 516.953 855.657 517.52 845.948 517.52V527.52ZM872.433 525.719C880.095 524.391 886.544 522.012 891.36 518.254L885.207 510.37C882.151 512.756 877.464 514.697 870.726 515.865L872.433 525.719ZM891.419 518.207C896.708 513.95 899.188 507.955 899.188 500.92H889.188C889.188 505.405 887.731 508.338 885.148 510.417L891.419 518.207ZM899.188 500.92C899.188 493.887 896.706 487.903 891.36 483.73L885.207 491.614C887.733 493.585 889.188 496.433 889.188 500.92H899.188ZM891.419 483.777C886.57 479.874 880.071 477.487 872.369 476.255L870.79 486.129C877.488 487.201 882.125 489.134 885.148 491.567L891.419 483.777ZM872.433 476.265C864.873 474.955 856.029 474.32 845.948 474.32V484.32C855.642 484.32 863.886 484.933 870.726 486.119L872.433 476.265ZM845.948 474.32C835.862 474.32 826.888 474.956 819.062 476.26L820.705 486.124C827.855 484.932 836.257 484.32 845.948 484.32V474.32ZM819.114 476.252C811.229 477.48 804.555 479.851 799.46 483.672L805.46 491.672C808.812 489.157 813.754 487.208 820.653 486.132L819.114 476.252ZM799.474 483.661C793.914 487.799 791.268 493.797 791.268 500.92H801.268C801.268 496.523 802.749 493.689 805.445 491.683L799.474 483.661ZM791.268 500.92C791.268 508.044 793.911 514.054 799.415 518.279L805.504 510.345C802.752 508.234 801.268 505.316 801.268 500.92H791.268ZM799.519 518.356C804.579 522.036 811.206 524.398 819.051 525.722L820.716 515.862C813.777 514.69 808.788 512.732 805.4 510.268L799.519 518.356ZM819.123 525.734C826.925 526.934 835.877 527.52 845.948 527.52V517.52C836.242 517.52 827.818 516.954 820.644 515.85L819.123 525.734Z" fill="#FFFCEB"/>
<path d="M181.079 94.552C180.599 103.672 177.287 111.304 171.143 117.448C164.999 123.592 155.927 128.2 143.927 131.272C132.023 134.344 116.951 135.88 98.7114 135.88C84.7914 135.88 72.3114 135.112 61.2714 133.576C50.2314 132.136 40.8234 129.64 33.0474 126.088C25.2714 122.44 19.3194 117.496 15.1914 111.256C11.0634 105.016 8.99938 97.144 8.99938 87.64C8.99938 78.136 11.0634 70.216 15.1914 63.88C19.3194 57.448 25.2714 52.36 33.0474 48.616C40.8234 44.776 50.2314 42.04 61.2714 40.408C72.3114 38.776 84.7914 37.96 98.7114 37.96C116.951 37.96 132.071 39.64 144.071 43C156.071 46.264 165.143 51.112 171.287 57.544C177.431 63.976 180.743 71.8 181.223 81.016H143.783C142.631 77.944 140.519 75.256 137.447 72.952C134.375 70.552 129.767 68.68 123.623 67.336C117.479 65.992 109.175 65.32 98.7114 65.32C86.4234 65.32 76.4394 66.088 68.7594 67.624C61.0794 69.064 55.4634 71.416 51.9114 74.68C48.3594 77.944 46.5834 82.264 46.5834 87.64C46.5834 92.536 48.3594 96.52 51.9114 99.592C55.4634 102.664 61.0794 104.92 68.7594 106.36C76.4394 107.8 86.4234 108.52 98.7114 108.52C109.175 108.52 117.431 107.896 123.479 106.648C129.623 105.4 134.231 103.72 137.303 101.608C140.375 99.4 142.487 97.048 143.639 94.552H181.079ZM285.682 135.88C264.754 135.88 247.906 134.056 235.138 130.408C222.37 126.664 213.058 121.192 207.202 113.992C201.442 106.696 198.562 97.672 198.562 86.92C198.562 76.168 201.442 67.192 207.202 59.992C213.058 52.696 222.37 47.224 235.138 43.576C247.906 39.832 264.754 37.96 285.682 37.96C306.61 37.96 323.458 39.832 336.226 43.576C348.994 47.224 358.258 52.696 364.018 59.992C369.874 67.192 372.802 76.168 372.802 86.92C372.802 97.672 369.874 106.696 364.018 113.992C358.258 121.192 348.994 126.664 336.226 130.408C323.458 134.056 306.61 135.88 285.682 135.88ZM285.682 108.52C295.57 108.52 304.114 107.944 311.314 106.792C318.514 105.544 324.082 103.384 328.018 100.312C331.954 97.144 333.922 92.68 333.922 86.92C333.922 81.16 331.954 76.744 328.018 73.672C324.082 70.504 318.514 68.344 311.314 67.192C304.114 65.944 295.57 65.32 285.682 65.32C275.794 65.32 267.106 65.944 259.618 67.192C252.226 68.344 246.418 70.504 242.194 73.672C238.066 76.744 236.002 81.16 236.002 86.92C236.002 92.68 238.066 97.144 242.194 100.312C246.418 103.384 252.226 105.544 259.618 106.792C267.106 107.944 275.794 108.52 285.682 108.52ZM535.965 104.776L522.573 112.408V40.84H558.573V133H522.573L414.141 70.216L427.533 62.44V133H391.533V40.84H427.533L535.965 104.776ZM682.385 40.84C695.345 40.84 706.049 42.088 714.497 44.584C722.945 47.08 729.569 50.488 734.369 54.808C739.169 59.128 742.529 64.072 744.449 69.64C746.465 75.112 747.473 80.872 747.473 86.92C747.473 92.968 746.369 98.776 744.161 104.344C741.953 109.816 738.305 114.712 733.217 119.032C728.225 123.352 721.553 126.76 713.201 129.256C704.945 131.752 694.673 133 682.385 133H578.705V40.84H682.385ZM614.705 104.2H680.945C686.321 104.2 690.881 103.864 694.625 103.192C698.369 102.424 701.345 101.32 703.553 99.88C705.857 98.44 707.489 96.664 708.449 94.552C709.505 92.344 710.033 89.8 710.033 86.92C710.033 84.04 709.505 81.544 708.449 79.432C707.489 77.224 705.857 75.4 703.553 73.96C701.345 72.52 698.369 71.464 694.625 70.792C690.881 70.024 686.321 69.64 680.945 69.64H614.705V104.2ZM768.318 40.84H804.318V133H768.318V40.84ZM820.867 40.84H970.627V68.2H820.867V40.84ZM877.747 66.328H913.747V133H877.747V66.328ZM987.131 40.84H1023.13V133H987.131V40.84ZM1131.12 135.88C1110.19 135.88 1093.34 134.056 1080.58 130.408C1067.81 126.664 1058.5 121.192 1052.64 113.992C1046.88 106.696 1044 97.672 1044 86.92C1044 76.168 1046.88 67.192 1052.64 59.992C1058.5 52.696 1067.81 47.224 1080.58 43.576C1093.34 39.832 1110.19 37.96 1131.12 37.96C1152.05 37.96 1168.9 39.832 1181.66 43.576C1194.43 47.224 1203.7 52.696 1209.46 59.992C1215.31 67.192 1218.24 76.168 1218.24 86.92C1218.24 97.672 1215.31 106.696 1209.46 113.992C1203.7 121.192 1194.43 126.664 1181.66 130.408C1168.9 134.056 1152.05 135.88 1131.12 135.88ZM1131.12 108.52C1141.01 108.52 1149.55 107.944 1156.75 106.792C1163.95 105.544 1169.52 103.384 1173.46 100.312C1177.39 97.144 1179.36 92.68 1179.36 86.92C1179.36 81.16 1177.39 76.744 1173.46 73.672C1169.52 70.504 1163.95 68.344 1156.75 67.192C1149.55 65.944 1141.01 65.32 1131.12 65.32C1121.23 65.32 1112.54 65.944 1105.06 67.192C1097.66 68.344 1091.86 70.504 1087.63 73.672C1083.5 76.744 1081.44 81.16 1081.44 86.92C1081.44 92.68 1083.5 97.144 1087.63 100.312C1091.86 103.384 1097.66 105.544 1105.06 106.792C1112.54 107.944 1121.23 108.52 1131.12 108.52ZM1381.4 104.776L1368.01 112.408V40.84H1404.01V133H1368.01L1259.58 70.216L1272.97 62.44V133H1236.97V40.84H1272.97L1381.4 104.776ZM1426.3 40.84H1462.3V133H1426.3V40.84ZM1629.04 104.776L1615.65 112.408V40.84H1651.65V133H1615.65L1507.22 70.216L1520.61 62.44V133H1484.61V40.84H1520.61L1629.04 104.776ZM1755.74 135.88C1743.26 135.88 1731.78 135.112 1721.32 133.576C1710.95 132.136 1701.93 129.64 1694.25 126.088C1686.66 122.44 1680.76 117.496 1676.54 111.256C1672.41 105.016 1670.34 97.144 1670.34 87.64C1670.34 78.136 1672.46 70.216 1676.68 63.88C1680.9 57.448 1686.95 52.36 1694.82 48.616C1702.79 44.776 1712.25 42.04 1723.19 40.408C1734.23 38.776 1746.52 37.96 1760.06 37.96C1777.82 37.96 1792.7 39.592 1804.7 42.856C1816.79 46.12 1826.01 50.776 1832.34 56.824C1838.68 62.776 1842.09 69.88 1842.57 78.136H1805.13C1803.98 76.024 1801.86 74.008 1798.79 72.088C1795.72 70.072 1791.11 68.44 1784.97 67.192C1778.82 65.944 1770.52 65.32 1760.06 65.32C1747.77 65.32 1737.78 66.088 1730.1 67.624C1722.42 69.064 1716.81 71.416 1713.26 74.68C1709.7 77.944 1707.93 82.264 1707.93 87.64C1707.93 92.344 1709.75 96.232 1713.4 99.304C1717.05 102.376 1722.9 104.68 1730.97 106.216C1739.03 107.752 1749.69 108.52 1762.94 108.52C1772.25 108.52 1780.31 108.136 1787.13 107.368C1794.04 106.504 1800.28 105.208 1805.85 103.48C1811.51 101.752 1817.13 99.592 1822.7 97L1826.15 101.176C1820.2 112.408 1811.37 121 1799.66 126.952C1787.94 132.904 1773.3 135.88 1755.74 135.88ZM1816.36 133C1816.36 130.12 1816.74 126.856 1817.51 123.208C1818.28 119.56 1819.24 115.768 1820.39 111.832C1821.64 107.8 1822.84 104.008 1823.99 100.456H1767.83V85.336H1844.58V133H1816.36Z" fill="black"/>
</svg>
