<svg width="100" height="100" viewBox="0 0 100 100" fill="none" xmlns="http://www.w3.org/2000/svg">
<path d="M28.5714 77.7778C28.5714 80.8333 25.3571 83.3333 21.4286 83.3333C17.5 83.3333 14.2857 80.8333 14.2857 77.7778C14.2857 74.7222 17.5 72.2222 21.4286 72.2222C25.3571 72.2222 28.5714 74.7222 28.5714 77.7778ZM50 72.2222C46.0714 72.2222 42.8571 74.7222 42.8571 77.7778C42.8571 80.8333 46.0714 83.3333 50 83.3333C53.9286 83.3333 57.1429 80.8333 57.1429 77.7778C57.1429 74.7222 53.9286 72.2222 50 72.2222ZM78.5714 72.2222C74.6429 72.2222 71.4286 74.7222 71.4286 77.7778C71.4286 80.8333 74.6429 83.3333 78.5714 83.3333C82.5 83.3333 85.7143 80.8333 85.7143 77.7778C85.7143 74.7222 82.5 72.2222 78.5714 72.2222ZM100 50V61.1111H0V50C0 30.3889 18.6429 14.2778 42.8571 11.5556V0H57.1429V11.5556C81.3571 14.2778 100 30.3889 100 50ZM85.7143 50C85.7143 34.6667 69.7143 22.2222 50 22.2222C30.2857 22.2222 14.2857 34.6667 14.2857 50H85.7143ZM21.4286 88.8889C17.5 88.8889 14.2857 91.3889 14.2857 94.4444C14.2857 97.5 17.5 100 21.4286 100C25.3571 100 28.5714 97.5 28.5714 94.4444C28.5714 91.3889 25.3571 88.8889 21.4286 88.8889ZM50 88.8889C46.0714 88.8889 42.8571 91.3889 42.8571 94.4444C42.8571 97.5 46.0714 100 50 100C53.9286 100 57.1429 97.5 57.1429 94.4444C57.1429 91.3889 53.9286 88.8889 50 88.8889ZM78.5714 88.8889C74.6429 88.8889 71.4286 91.3889 71.4286 94.4444C71.4286 97.5 74.6429 100 78.5714 100C82.5 100 85.7143 97.5 85.7143 94.4444C85.7143 91.3889 82.5 88.8889 78.5714 88.8889Z" fill="#FFFCEB"/>
</svg>
