<svg width="100" height="100" viewBox="0 0 100 100" fill="none" xmlns="http://www.w3.org/2000/svg">
<path d="M63.75 20C56.9 20 51.25 27.6 51.25 37C51.25 44.4 54.75 50.55 59.6 52.9L60 53.1V85H67.5V53.1L67.9 52.95C72.75 50.6 76.25 44.45 76.25 37.05C76.25 27.65 70.65 20 63.75 20ZM42.5 20C41.15 20 40 21.1 40 22.5V35H36.25V22.5C36.25 21.1 35.15 20 33.75 20C32.35 20 31.25 21.1 31.25 22.5V35H27.5V22.5C27.5 21.1 26.4 20 25 20C23.6 20 22.5 21.1 22.5 22.5V41.5C22.5 46.15 25.7 50.05 30 51.15V85H37.5V51.15C41.8 50.05 45 46.15 45 41.5V22.5C45 21.1 43.9 20 42.5 20ZM90 10H10V90H90V10ZM90 0C95.5 0 100 4.5 100 10V90C100 95.5 95.5 100 90 100H10C4.5 100 0 95.5 0 90V10C0 4.5 4.5 0 10 0H90Z" fill="#FFFCEB"/>
</svg>
