<svg width="100" height="100" viewBox="0 0 100 100" fill="none" xmlns="http://www.w3.org/2000/svg">
<path d="M88.8889 9.09091H65.6667C63.3333 3.81818 57.2222 0 50 0C42.7778 0 36.6667 3.81818 34.3333 9.09091H11.1111C5 9.09091 0 13.1818 0 18.1818V90.9091C0 95.9091 5 100 11.1111 100H88.8889C95 100 100 95.9091 100 90.9091V18.1818C100 13.1818 95 9.09091 88.8889 9.09091ZM50 9.09091C53.0556 9.09091 55.5556 11.1364 55.5556 13.6364C55.5556 16.1364 53.0556 18.1818 50 18.1818C46.9444 18.1818 44.4444 16.1364 44.4444 13.6364C44.4444 11.1364 46.9444 9.09091 50 9.09091ZM88.8889 90.9091H11.1111V18.1818H22.2222V31.8182H77.7778V18.1818H88.8889V90.9091Z" fill="#FFFCEB"/>
</svg>
