<svg width="375" height="81" viewBox="0 0 375 81" fill="none" xmlns="http://www.w3.org/2000/svg">
<g id="Group 27">
<path id="PILATES" d="M20.2753 25.4V18.4H40.2353C41.0353 18.4 41.702 18.28 42.2353 18.04C42.7953 17.7733 43.0753 17.2267 43.0753 16.4C43.0753 15.5467 42.7953 15 42.2353 14.76C41.702 14.52 41.0353 14.4 40.2353 14.4H20.9153V32H10.9153V6.4H38.6753C40.6753 6.4 42.542 6.54667 44.2753 6.84C46.0353 7.10667 47.5686 7.6 48.8753 8.32C50.182 9.04 51.2086 10.0533 51.9553 11.36C52.702 12.6667 53.0753 14.3467 53.0753 16.4C53.0753 18.4533 52.702 20.08 51.9553 21.28C51.2086 22.48 50.182 23.3733 48.8753 23.96C47.5686 24.5467 46.0353 24.9333 44.2753 25.12C42.542 25.3067 40.6753 25.4 38.6753 25.4H20.2753ZM72.6656 6.4H82.6656V32H72.6656V6.4ZM112.863 6.4V24.4H136.183V32H102.863V6.4H112.863ZM161.157 28.12V22.12H188.517V28.12H161.157ZM152.197 32L169.357 6.4H180.477L197.797 32H186.797L171.957 9.08H177.917L163.197 32H152.197ZM208.208 6.4H249.808V14H208.208V6.4ZM224.008 13.48H234.008V32H224.008V13.48ZM277.792 21.2V24.4H308.192V32H267.792V6.4H308.112V14H277.792V17.2H302.592V21.2H277.792ZM325.978 22.6H336.898C337.085 23.16 337.631 23.64 338.538 24.04C339.445 24.4133 340.658 24.7067 342.178 24.92C343.725 25.1067 345.511 25.2 347.538 25.2C349.538 25.2 351.111 25.1467 352.258 25.04C353.431 24.9067 354.258 24.6933 354.738 24.4C355.218 24.08 355.458 23.6533 355.458 23.12C355.458 22.6133 355.071 22.2267 354.298 21.96C353.525 21.6667 352.151 21.4667 350.178 21.36C348.205 21.2533 345.431 21.2 341.858 21.2C339.191 21.2 336.885 21.08 334.938 20.84C333.018 20.5733 331.431 20.1733 330.178 19.64C328.951 19.08 328.045 18.3867 327.458 17.56C326.871 16.7067 326.578 15.6933 326.578 14.52C326.578 12.4933 327.258 10.8267 328.618 9.52C330.005 8.18666 332.085 7.2 334.858 6.56C337.658 5.89333 341.151 5.56 345.338 5.56C351.471 5.56 356.151 6.45333 359.378 8.24C362.631 10 364.258 12.5467 364.258 15.88H353.898C353.765 15 352.938 14.3333 351.418 13.88C349.898 13.4 347.738 13.16 344.938 13.16C342.165 13.16 340.098 13.32 338.738 13.64C337.405 13.96 336.738 14.5067 336.738 15.28C336.738 15.68 336.925 16 337.298 16.24C337.671 16.48 338.311 16.68 339.218 16.84C340.151 16.9733 341.458 17.0667 343.138 17.12C344.818 17.1733 346.951 17.2 349.538 17.2C352.391 17.2 354.818 17.3467 356.818 17.64C358.818 17.9067 360.431 18.32 361.658 18.88C362.911 19.44 363.818 20.16 364.378 21.04C364.938 21.8933 365.218 22.9067 365.218 24.08C365.218 26.1067 364.578 27.76 363.298 29.04C362.018 30.32 359.991 31.2667 357.218 31.88C354.445 32.4933 350.818 32.8 346.338 32.8C343.805 32.8 341.471 32.6533 339.338 32.36C337.231 32.0667 335.351 31.64 333.698 31.08C332.045 30.4933 330.645 29.7867 329.498 28.96C328.351 28.1067 327.471 27.16 326.858 26.12C326.271 25.0533 325.978 23.88 325.978 22.6Z" fill="#FFFCEB"/>
<path id="PILATES_2" d="M20.2753 63.4H19.2753V64.4H20.2753V63.4ZM20.2753 56.4V55.4H19.2753V56.4H20.2753ZM42.2353 56.04L42.6457 56.9519L42.6555 56.9475L42.6652 56.9429L42.2353 56.04ZM42.2353 52.76L41.8249 53.6719L41.8331 53.6756L41.8414 53.6791L42.2353 52.76ZM20.9153 52.4V51.4H19.9153V52.4H20.9153ZM20.9153 70V71H21.9153V70H20.9153ZM10.9153 70H9.91531V71H10.9153V70ZM10.9153 44.4V43.4H9.91531V44.4H10.9153ZM44.2753 44.84L44.1085 45.826L44.117 45.8274L44.1255 45.8287L44.2753 44.84ZM51.9553 49.36L52.8236 48.8639L52.8236 48.8639L51.9553 49.36ZM51.9553 59.28L52.8044 59.8083L52.8044 59.8083L51.9553 59.28ZM44.2753 63.12L44.1698 62.1256L44.1682 62.1257L44.2753 63.12ZM21.2753 63.4V56.4H19.2753V63.4H21.2753ZM20.2753 57.4H40.2353V55.4H20.2753V57.4ZM40.2353 57.4C41.1278 57.4 41.9451 57.2672 42.6457 56.9519L41.8249 55.1281C41.4589 55.2928 40.9428 55.4 40.2353 55.4V57.4ZM42.6652 56.9429C43.6921 56.4539 44.0753 55.4608 44.0753 54.4H42.0753C42.0753 54.9925 41.8985 55.0928 41.8054 55.1371L42.6652 56.9429ZM44.0753 54.4C44.0753 53.3359 43.7041 52.3015 42.6292 51.8409L41.8414 53.6791C41.9052 53.7065 41.9406 53.7382 41.9753 53.8059C42.0204 53.8941 42.0753 54.0736 42.0753 54.4H44.0753ZM42.6457 51.8481C41.9451 51.5328 41.1278 51.4 40.2353 51.4V53.4C40.9428 53.4 41.4589 53.5072 41.8249 53.6719L42.6457 51.8481ZM40.2353 51.4H20.9153V53.4H40.2353V51.4ZM19.9153 52.4V70H21.9153V52.4H19.9153ZM20.9153 69H10.9153V71H20.9153V69ZM11.9153 70V44.4H9.91531V70H11.9153ZM10.9153 45.4H38.6753V43.4H10.9153V45.4ZM38.6753 45.4C40.6269 45.4 42.4372 45.5431 44.1085 45.826L44.4422 43.854C42.6468 43.5502 40.7238 43.4 38.6753 43.4V45.4ZM44.1255 45.8287C45.7908 46.081 47.2073 46.5426 48.3927 47.1958L49.3579 45.4442C47.93 44.6574 46.2799 44.1323 44.4251 43.8513L44.1255 45.8287ZM48.3927 47.1958C49.5369 47.8263 50.4308 48.7076 51.0871 49.8561L52.8236 48.8639C51.9865 47.3991 50.8271 46.2537 49.3579 45.4442L48.3927 47.1958ZM51.0871 49.8561C51.7216 50.9665 52.0753 52.4599 52.0753 54.4H54.0753C54.0753 52.2334 53.6824 50.3668 52.8236 48.8639L51.0871 49.8561ZM52.0753 54.4C52.0753 56.3464 51.7192 57.7665 51.1063 58.7517L52.8044 59.8083C53.6847 58.3935 54.0753 56.5603 54.0753 54.4H52.0753ZM51.1063 58.7517C50.4661 59.7805 49.5936 60.5413 48.4657 61.0477L49.2849 62.8723C50.7704 62.2053 51.9512 61.1795 52.8044 59.8083L51.1063 58.7517ZM48.4657 61.0477C47.2751 61.5823 45.8485 61.9475 44.1698 62.1256L44.3808 64.1144C46.2221 63.9191 47.8622 63.511 49.2849 62.8723L48.4657 61.0477ZM44.1682 62.1257C42.4752 62.3081 40.6446 62.4 38.6753 62.4V64.4C40.706 64.4 42.6088 64.3053 44.3824 64.1143L44.1682 62.1257ZM38.6753 62.4H20.2753V64.4H38.6753V62.4ZM72.6656 44.4V43.4H71.6656V44.4H72.6656ZM82.6656 44.4H83.6656V43.4H82.6656V44.4ZM82.6656 70V71H83.6656V70H82.6656ZM72.6656 70H71.6656V71H72.6656V70ZM72.6656 45.4H82.6656V43.4H72.6656V45.4ZM81.6656 44.4V70H83.6656V44.4H81.6656ZM82.6656 69H72.6656V71H82.6656V69ZM73.6656 70V44.4H71.6656V70H73.6656ZM112.863 44.4H113.863V43.4H112.863V44.4ZM112.863 62.4H111.863V63.4H112.863V62.4ZM136.183 62.4H137.183V61.4H136.183V62.4ZM136.183 70V71H137.183V70H136.183ZM102.863 70H101.863V71H102.863V70ZM102.863 44.4V43.4H101.863V44.4H102.863ZM111.863 44.4V62.4H113.863V44.4H111.863ZM112.863 63.4H136.183V61.4H112.863V63.4ZM135.183 62.4V70H137.183V62.4H135.183ZM136.183 69H102.863V71H136.183V69ZM103.863 70V44.4H101.863V70H103.863ZM102.863 45.4H112.863V43.4H102.863V45.4ZM161.157 66.12H160.157V67.12H161.157V66.12ZM161.157 60.12V59.12H160.157V60.12H161.157ZM188.517 60.12H189.517V59.12H188.517V60.12ZM188.517 66.12V67.12H189.517V66.12H188.517ZM152.197 70L151.366 69.4432L150.323 71H152.197V70ZM169.357 44.4V43.4H168.823L168.526 43.8432L169.357 44.4ZM180.477 44.4L181.305 43.8396L181.008 43.4H180.477V44.4ZM197.797 70V71H199.681L198.625 69.4396L197.797 70ZM186.797 70L185.957 70.5435L186.253 71H186.797V70ZM171.957 47.08V46.08H170.118L171.117 47.6235L171.957 47.08ZM177.917 47.08L178.758 47.6204L179.748 46.08H177.917V47.08ZM163.197 70V71H163.743L164.038 70.5404L163.197 70ZM162.157 66.12V60.12H160.157V66.12H162.157ZM161.157 61.12H188.517V59.12H161.157V61.12ZM187.517 60.12V66.12H189.517V60.12H187.517ZM188.517 65.12H161.157V67.12H188.517V65.12ZM153.028 70.5568L170.188 44.9568L168.526 43.8432L151.366 69.4432L153.028 70.5568ZM169.357 45.4H180.477V43.4H169.357V45.4ZM179.649 44.9604L196.969 70.5604L198.625 69.4396L181.305 43.8396L179.649 44.9604ZM197.797 69H186.797V71H197.797V69ZM187.636 69.4565L172.796 46.5365L171.117 47.6235L185.957 70.5435L187.636 69.4565ZM171.957 48.08H177.917V46.08H171.957V48.08ZM177.075 46.5396L162.355 69.4596L164.038 70.5404L178.758 47.6204L177.075 46.5396ZM163.197 69H152.197V71H163.197V69ZM208.208 44.4V43.4H207.208V44.4H208.208ZM249.808 44.4H250.808V43.4H249.808V44.4ZM249.808 52V53H250.808V52H249.808ZM208.208 52H207.208V53H208.208V52ZM224.008 51.48V50.48H223.008V51.48H224.008ZM234.008 51.48H235.008V50.48H234.008V51.48ZM234.008 70V71H235.008V70H234.008ZM224.008 70H223.008V71H224.008V70ZM208.208 45.4H249.808V43.4H208.208V45.4ZM248.808 44.4V52H250.808V44.4H248.808ZM249.808 51H208.208V53H249.808V51ZM209.208 52V44.4H207.208V52H209.208ZM224.008 52.48H234.008V50.48H224.008V52.48ZM233.008 51.48V70H235.008V51.48H233.008ZM234.008 69H224.008V71H234.008V69ZM225.008 70V51.48H223.008V70H225.008ZM277.792 59.2V58.2H276.792V59.2H277.792ZM277.792 62.4H276.792V63.4H277.792V62.4ZM308.192 62.4H309.192V61.4H308.192V62.4ZM308.192 70V71H309.192V70H308.192ZM267.792 70H266.792V71H267.792V70ZM267.792 44.4V43.4H266.792V44.4H267.792ZM308.112 44.4H309.112V43.4H308.112V44.4ZM308.112 52V53H309.112V52H308.112ZM277.792 52V51H276.792V52H277.792ZM277.792 55.2H276.792V56.2H277.792V55.2ZM302.592 55.2H303.592V54.2H302.592V55.2ZM302.592 59.2V60.2H303.592V59.2H302.592ZM276.792 59.2V62.4H278.792V59.2H276.792ZM277.792 63.4H308.192V61.4H277.792V63.4ZM307.192 62.4V70H309.192V62.4H307.192ZM308.192 69H267.792V71H308.192V69ZM268.792 70V44.4H266.792V70H268.792ZM267.792 45.4H308.112V43.4H267.792V45.4ZM307.112 44.4V52H309.112V44.4H307.112ZM308.112 51H277.792V53H308.112V51ZM276.792 52V55.2H278.792V52H276.792ZM277.792 56.2H302.592V54.2H277.792V56.2ZM301.592 55.2V59.2H303.592V55.2H301.592ZM302.592 58.2H277.792V60.2H302.592V58.2ZM325.978 60.6V59.6H324.978V60.6H325.978ZM336.898 60.6L337.847 60.2838L337.619 59.6H336.898V60.6ZM338.538 62.04L338.134 62.9549L338.146 62.9599L338.157 62.9647L338.538 62.04ZM342.178 62.92L342.039 63.9103L342.049 63.9116L342.058 63.9128L342.178 62.92ZM352.258 63.04L352.351 64.0357L352.361 64.0348L352.371 64.0336L352.258 63.04ZM354.738 62.4L355.26 63.2533L355.276 63.243L355.293 63.2321L354.738 62.4ZM354.298 59.96L353.943 60.895L353.958 60.9004L353.972 60.9054L354.298 59.96ZM350.178 59.36L350.124 60.3585L350.124 60.3585L350.178 59.36ZM334.938 58.84L334.801 59.8305L334.808 59.8315L334.816 59.8325L334.938 58.84ZM330.178 57.64L329.763 58.5497L329.775 58.5551L329.787 58.5602L330.178 57.64ZM327.458 55.56L326.634 56.1265L326.638 56.1327L326.643 56.1387L327.458 55.56ZM328.618 47.52L329.311 48.2411L329.311 48.2408L328.618 47.52ZM334.858 44.56L335.083 45.5344L335.09 45.5328L334.858 44.56ZM359.378 46.24L358.894 47.1149L358.902 47.1195L359.378 46.24ZM364.258 53.88V54.88H365.258V53.88H364.258ZM353.898 53.88L352.909 54.0298L353.038 54.88H353.898V53.88ZM351.418 51.88L351.117 52.8336L351.125 52.836L351.132 52.8383L351.418 51.88ZM338.738 51.64L338.509 50.6666L338.505 50.6676L338.738 51.64ZM339.218 54.84L339.044 55.8248L339.06 55.8276L339.077 55.8299L339.218 54.84ZM356.818 55.64L356.673 56.6295L356.686 56.6312L356.818 55.64ZM361.658 56.88L361.243 57.7897L361.25 57.793L361.658 56.88ZM364.378 59.04L363.534 59.5769L363.542 59.5887L364.378 59.04ZM363.298 67.04L364.005 67.7471L364.005 67.7471L363.298 67.04ZM357.218 69.88L357.434 70.8564L357.434 70.8564L357.218 69.88ZM339.338 70.36L339.2 71.3504L339.202 71.3507L339.338 70.36ZM333.698 69.08L333.364 70.0224L333.371 70.0248L333.377 70.0271L333.698 69.08ZM329.498 66.96L328.901 67.7622L328.907 67.7668L328.913 67.7712L329.498 66.96ZM326.858 64.12L325.982 64.6019L325.989 64.6151L325.997 64.628L326.858 64.12ZM325.978 61.6H336.898V59.6H325.978V61.6ZM335.949 60.9162C336.27 61.8784 337.137 62.515 338.134 62.9549L338.942 61.1251C338.126 60.765 337.899 60.4416 337.847 60.2838L335.949 60.9162ZM338.157 62.9647C339.172 63.3826 340.477 63.6911 342.039 63.9103L342.317 61.9297C340.839 61.7223 339.717 61.4441 338.919 61.1153L338.157 62.9647ZM342.058 63.9128C343.654 64.1054 345.483 64.2 347.538 64.2V62.2C345.54 62.2 343.795 62.1079 342.298 61.9272L342.058 63.9128ZM347.538 64.2C349.55 64.2 351.159 64.1466 352.351 64.0357L352.166 62.0443C351.064 62.1468 349.526 62.2 347.538 62.2V64.2ZM352.371 64.0336C353.564 63.898 354.58 63.6684 355.26 63.2533L354.217 61.5467C353.936 61.7182 353.299 61.9153 352.145 62.0464L352.371 64.0336ZM355.293 63.2321C356.024 62.7445 356.458 62.0188 356.458 61.12H354.458C354.458 61.2879 354.412 61.4155 354.183 61.5679L355.293 63.2321ZM356.458 61.12C356.458 59.9477 355.515 59.3219 354.624 59.0146L353.972 60.9054C354.28 61.0117 354.415 61.111 354.461 61.1571C354.48 61.1756 354.475 61.1771 354.468 61.1597C354.46 61.1408 354.458 61.1242 354.458 61.12H356.458ZM354.653 59.025C353.719 58.6709 352.205 58.4681 350.232 58.3615L350.124 60.3585C352.098 60.4652 353.33 60.6624 353.943 60.895L354.653 59.025ZM350.232 58.3615C348.232 58.2533 345.438 58.2 341.858 58.2V60.2C345.425 60.2 348.178 60.2533 350.124 60.3585L350.232 58.3615ZM341.858 58.2C339.219 58.2 336.955 58.0811 335.06 57.8475L334.816 59.8325C336.814 60.0789 339.164 60.2 341.858 60.2V58.2ZM335.076 57.8495C333.209 57.5903 331.716 57.2075 330.57 56.7198L329.787 58.5602C331.147 59.1392 332.827 59.5564 334.801 59.8305L335.076 57.8495ZM330.593 56.7303C329.476 56.2201 328.73 55.6244 328.274 54.9813L326.643 56.1387C327.359 57.1489 328.427 57.9399 329.763 58.5497L330.593 56.7303ZM328.282 54.9935C327.825 54.3284 327.578 53.5189 327.578 52.52H325.578C325.578 53.8677 325.918 55.0849 326.634 56.1265L328.282 54.9935ZM327.578 52.52C327.578 50.7429 328.163 49.3441 329.311 48.2411L327.925 46.7989C326.353 48.3092 325.578 50.2438 325.578 52.52H327.578ZM329.311 48.2408C330.52 47.079 332.407 46.1519 335.083 45.5344L334.633 43.5856C331.763 44.2481 329.49 45.2943 327.925 46.7992L329.311 48.2408ZM335.09 45.5328C337.788 44.8903 341.198 44.56 345.338 44.56V42.56C341.105 42.56 337.528 42.8963 334.627 43.5872L335.09 45.5328ZM345.338 44.56C351.401 44.56 355.883 45.4478 358.894 47.1148L359.863 45.3652C356.42 43.4589 351.542 42.56 345.338 42.56V44.56ZM358.902 47.1195C360.413 47.9367 361.492 48.9067 362.195 50.0083C362.896 51.1045 363.258 52.3837 363.258 53.88H365.258C365.258 52.0429 364.807 50.3821 363.881 48.9317C362.958 47.4866 361.597 46.3033 359.854 45.3605L358.902 47.1195ZM364.258 52.88H353.898V54.88H364.258V52.88ZM354.887 53.7302C354.66 52.2315 353.292 51.3954 351.704 50.9217L351.132 52.8383C352.584 53.2712 352.87 53.7685 352.909 54.0298L354.887 53.7302ZM351.719 50.9264C350.055 50.4008 347.775 50.16 344.938 50.16V52.16C347.701 52.16 349.741 52.3992 351.117 52.8336L351.719 50.9264ZM344.938 50.16C342.148 50.16 339.986 50.3191 338.509 50.6666L338.967 52.6134C340.21 52.3209 342.182 52.16 344.938 52.16V50.16ZM338.505 50.6676C337.769 50.8443 337.103 51.1074 336.604 51.5167C336.069 51.9553 335.738 52.5569 335.738 53.28H337.738C337.738 53.2297 337.74 53.1713 337.872 53.0633C338.04 52.9259 338.374 52.7557 338.971 52.6124L338.505 50.6676ZM335.738 53.28C335.738 54.0622 336.135 54.6811 336.757 55.0812L337.839 53.3988C337.799 53.3729 337.774 53.3518 337.76 53.3379C337.747 53.3245 337.742 53.317 337.742 53.3161C337.742 53.3156 337.742 53.3157 337.741 53.314C337.741 53.3119 337.738 53.3017 337.738 53.28H335.738ZM336.757 55.0812C337.308 55.4354 338.117 55.6612 339.044 55.8248L339.392 53.8552C338.506 53.6988 338.034 53.5246 337.839 53.3988L336.757 55.0812ZM339.077 55.8299C340.064 55.971 341.413 56.0657 343.106 56.1195L343.17 54.1205C341.503 54.0676 340.239 53.9757 339.36 53.8501L339.077 55.8299ZM343.106 56.1195C344.801 56.1733 346.946 56.2 349.538 56.2V54.2C346.957 54.2 344.835 54.1734 343.17 54.1205L343.106 56.1195ZM349.538 56.2C352.361 56.2 354.736 56.3453 356.673 56.6294L356.963 54.6506C354.9 54.348 352.422 54.2 349.538 54.2V56.2ZM356.686 56.6312C358.632 56.8906 360.139 57.2856 361.243 57.7897L362.073 55.9703C360.724 55.3544 359.005 54.9227 356.95 54.6488L356.686 56.6312ZM361.25 57.793C362.38 58.2979 363.108 58.9071 363.534 59.5769L365.222 58.5031C364.528 57.4129 363.443 56.5821 362.066 55.967L361.25 57.793ZM363.542 59.5887C363.98 60.2557 364.218 61.0717 364.218 62.08H366.218C366.218 60.7416 365.896 59.531 365.214 58.4913L363.542 59.5887ZM364.218 62.08C364.218 63.8761 363.66 65.2636 362.591 66.3329L364.005 67.7471C365.496 66.2564 366.218 64.3372 366.218 62.08H364.218ZM362.591 66.3329C361.502 67.4218 359.687 68.3099 357.002 68.9036L357.434 70.8564C360.296 70.2234 362.534 69.2182 364.005 67.7471L362.591 66.3329ZM357.002 68.9036C354.328 69.495 350.782 69.8 346.338 69.8V71.8C350.854 71.8 354.561 71.4917 357.434 70.8564L357.002 68.9036ZM346.338 69.8C343.843 69.8 341.555 69.6555 339.474 69.3693L339.202 71.3507C341.387 71.6512 343.767 71.8 346.338 71.8V69.8ZM339.476 69.3696C337.419 69.0831 335.602 68.6689 334.019 68.1329L333.377 70.0271C335.101 70.6111 337.044 71.0503 339.2 71.3504L339.476 69.3696ZM334.033 68.1376C332.448 67.5753 331.137 66.9087 330.083 66.1488L328.913 67.7712C330.153 68.6647 331.642 69.4114 333.364 70.0224L334.033 68.1376ZM330.095 66.1578C329.036 65.3696 328.254 64.5182 327.719 63.612L325.997 64.628C326.689 65.8018 327.667 66.8438 328.901 67.7622L330.095 66.1578ZM327.734 63.6381C327.233 62.7267 326.978 61.7205 326.978 60.6H324.978C324.978 62.0395 325.31 63.3799 325.982 64.6019L327.734 63.6381Z" fill="#FFFCEB" fill-opacity="0.5"/>
</g>
</svg>
