<svg width="375" height="128" viewBox="0 0 375 128" fill="none" xmlns="http://www.w3.org/2000/svg">
<path d="M25.9598 35L11.6398 9.4H22.9198L34.9998 33.2L31.1998 33.28L42.5198 9.4H54.5998L65.9198 33.28L62.1198 33.2L74.1998 9.4H85.3198L71.1598 35H57.6398L46.5998 13.44H50.5198L39.4798 35H25.9598ZM112.913 24.2V27.4H143.313V35H102.913V9.4H143.233V17H112.913V20.2H137.713V24.2H112.913ZM163.099 9.4H173.099V35H163.099V9.4ZM216.616 35.8C213.149 35.8 209.963 35.5867 207.056 35.16C204.176 34.76 201.669 34.0667 199.536 33.08C197.429 32.0667 195.789 30.6933 194.616 28.96C193.469 27.2267 192.896 25.04 192.896 22.4C192.896 19.76 193.483 17.56 194.656 15.8C195.829 14.0133 197.509 12.6 199.696 11.56C201.909 10.4933 204.536 9.73333 207.576 9.28C210.643 8.82667 214.056 8.6 217.816 8.6C222.749 8.6 226.883 9.05333 230.216 9.96C233.576 10.8667 236.136 12.16 237.896 13.84C239.656 15.4933 240.603 17.4667 240.736 19.76H230.336C230.016 19.1733 229.429 18.6133 228.576 18.08C227.723 17.52 226.443 17.0667 224.736 16.72C223.029 16.3733 220.723 16.2 217.816 16.2C214.403 16.2 211.629 16.4133 209.496 16.84C207.363 17.24 205.803 17.8933 204.816 18.8C203.829 19.7067 203.336 20.9067 203.336 22.4C203.336 23.7067 203.843 24.7867 204.856 25.64C205.869 26.4933 207.496 27.1333 209.736 27.56C211.976 27.9867 214.936 28.2 218.616 28.2C221.203 28.2 223.443 28.0933 225.336 27.88C227.256 27.64 228.989 27.28 230.536 26.8C232.109 26.32 233.669 25.72 235.216 25L236.176 26.16C234.523 29.28 232.069 31.6667 228.816 33.32C225.563 34.9733 221.496 35.8 216.616 35.8ZM233.456 35C233.456 34.2 233.563 33.2933 233.776 32.28C233.989 31.2667 234.256 30.2133 234.576 29.12C234.923 28 235.256 26.9467 235.576 25.96H219.976V21.76H241.296V35H233.456ZM269.45 18.24H297.61V25.84H269.45V18.24ZM296.49 9.4H306.49V35H296.49V9.4ZM260.89 9.4H270.89V35H260.89V9.4ZM324.501 9.4H366.101V17H324.501V9.4ZM340.301 16.48H350.301V35H340.301V16.48ZM26.8547 57.4V75.4H50.1747V83H16.8547V57.4H26.8547ZM69.1891 57.4H79.1891V83H69.1891V57.4ZM139.706 57.4V65H109.386V68.4H134.186V75.2H109.386V83H99.3859V57.4H139.706ZM156.903 57.4H198.503V65H156.903V57.4ZM172.703 64.48H182.703V83H172.703V64.48ZM217.088 57.4H227.088V83H217.088V57.4ZM287.404 75.16L283.684 77.28V57.4H293.684V83H283.684L253.564 65.56L257.284 63.4V83H247.284V57.4H257.284L287.404 75.16ZM336.597 83.8C333.13 83.8 329.943 83.5867 327.037 83.16C324.157 82.76 321.65 82.0667 319.517 81.08C317.41 80.0667 315.77 78.6933 314.597 76.96C313.45 75.2267 312.877 73.04 312.877 70.4C312.877 67.76 313.463 65.56 314.637 63.8C315.81 62.0133 317.49 60.6 319.677 59.56C321.89 58.4933 324.517 57.7333 327.557 57.28C330.623 56.8267 334.037 56.6 337.797 56.6C342.73 56.6 346.863 57.0533 350.197 57.96C353.557 58.8667 356.117 60.16 357.877 61.84C359.637 63.4933 360.583 65.4667 360.717 67.76H350.317C349.997 67.1733 349.41 66.6133 348.557 66.08C347.703 65.52 346.423 65.0667 344.717 64.72C343.01 64.3733 340.703 64.2 337.797 64.2C334.383 64.2 331.61 64.4133 329.477 64.84C327.343 65.24 325.783 65.8933 324.797 66.8C323.81 67.7067 323.317 68.9067 323.317 70.4C323.317 71.7067 323.823 72.7867 324.837 73.64C325.85 74.4933 327.477 75.1333 329.717 75.56C331.957 75.9867 334.917 76.2 338.597 76.2C341.183 76.2 343.423 76.0933 345.317 75.88C347.237 75.64 348.97 75.28 350.517 74.8C352.09 74.32 353.65 73.72 355.197 73L356.157 74.16C354.503 77.28 352.05 79.6667 348.797 81.32C345.543 82.9733 341.477 83.8 336.597 83.8ZM353.437 83C353.437 82.2 353.543 81.2933 353.757 80.28C353.97 79.2667 354.237 78.2133 354.557 77.12C354.903 76 355.237 74.9467 355.557 73.96H339.957V69.76H361.277V83H353.437Z" fill="#FFFCEB"/>
<path d="M22.8348 70.6089L21.9621 71.0971L22.2484 71.6089H22.8348V70.6089ZM8.51484 45.0089V44.0089H6.80965L7.64211 45.4971L8.51484 45.0089ZM19.7948 45.0089L20.6866 44.5563L20.4087 44.0089H19.7948V45.0089ZM31.8748 68.8089L31.8959 69.8087L33.4867 69.7752L32.7666 68.3563L31.8748 68.8089ZM28.0748 68.8889L27.1712 68.4605L26.4781 69.9227L28.0959 69.8887L28.0748 68.8889ZM39.3948 45.0089V44.0089H38.7622L38.4912 44.5805L39.3948 45.0089ZM51.4748 45.0089L52.3785 44.5805L52.1075 44.0089H51.4748V45.0089ZM62.7948 68.8889L62.7738 69.8887L64.3916 69.9227L63.6985 68.4605L62.7948 68.8889ZM58.9948 68.8089L58.1031 68.3563L57.383 69.7752L58.9738 69.8087L58.9948 68.8089ZM71.0748 45.0089V44.0089H70.461L70.1831 44.5563L71.0748 45.0089ZM82.1948 45.0089L83.0699 45.4929L83.8908 44.0089H82.1948V45.0089ZM68.0348 70.6089V71.6089H68.6245L68.9099 71.0929L68.0348 70.6089ZM54.5148 70.6089L53.6248 71.0647L53.9034 71.6089H54.5148V70.6089ZM43.4748 49.0489V48.0489H41.8393L42.5848 49.5047L43.4748 49.0489ZM47.3948 49.0489L48.2849 49.5047L49.0304 48.0489H47.3948V49.0489ZM36.3548 70.6089V71.6089H36.9663L37.2449 71.0647L36.3548 70.6089ZM23.7076 70.1207L9.38758 44.5207L7.64211 45.4971L21.9621 71.0971L23.7076 70.1207ZM8.51484 46.0089H19.7948V44.0089H8.51484V46.0089ZM18.9031 45.4615L30.9831 69.2615L32.7666 68.3563L20.6866 44.5563L18.9031 45.4615ZM31.8538 67.8091L28.0538 67.8891L28.0959 69.8887L31.8959 69.8087L31.8538 67.8091ZM28.9785 69.3172L40.2985 45.4372L38.4912 44.5805L27.1712 68.4605L28.9785 69.3172ZM39.3948 46.0089H51.4748V44.0089H39.3948V46.0089ZM50.5712 45.4372L61.8912 69.3172L63.6985 68.4605L52.3785 44.5805L50.5712 45.4372ZM62.8159 67.8891L59.0159 67.8091L58.9738 69.8087L62.7738 69.8887L62.8159 67.8891ZM59.8866 69.2615L71.9666 45.4615L70.1831 44.5563L58.1031 68.3563L59.8866 69.2615ZM71.0748 46.0089H82.1948V44.0089H71.0748V46.0089ZM81.3198 44.5249L67.1598 70.1249L68.9099 71.0929L83.0699 45.4929L81.3198 44.5249ZM68.0348 69.6089H54.5148V71.6089H68.0348V69.6089ZM55.4049 70.1531L44.3649 48.5931L42.5848 49.5047L53.6248 71.0647L55.4049 70.1531ZM43.4748 50.0489H47.3948V48.0489H43.4748V50.0489ZM46.5048 48.5931L35.4648 70.1531L37.2449 71.0647L48.2849 49.5047L46.5048 48.5931ZM36.3548 69.6089H22.8348V71.6089H36.3548V69.6089ZM109.788 59.8089V58.8089H108.788V59.8089H109.788ZM109.788 63.0089H108.788V64.0089H109.788V63.0089ZM140.188 63.0089H141.188V62.0089H140.188V63.0089ZM140.188 70.6089V71.6089H141.188V70.6089H140.188ZM99.7883 70.6089H98.7883V71.6089H99.7883V70.6089ZM99.7883 45.0089V44.0089H98.7883V45.0089H99.7883ZM140.108 45.0089H141.108V44.0089H140.108V45.0089ZM140.108 52.6089V53.6089H141.108V52.6089H140.108ZM109.788 52.6089V51.6089H108.788V52.6089H109.788ZM109.788 55.8089H108.788V56.8089H109.788V55.8089ZM134.588 55.8089H135.588V54.8089H134.588V55.8089ZM134.588 59.8089V60.8089H135.588V59.8089H134.588ZM108.788 59.8089V63.0089H110.788V59.8089H108.788ZM109.788 64.0089H140.188V62.0089H109.788V64.0089ZM139.188 63.0089V70.6089H141.188V63.0089H139.188ZM140.188 69.6089H99.7883V71.6089H140.188V69.6089ZM100.788 70.6089V45.0089H98.7883V70.6089H100.788ZM99.7883 46.0089H140.108V44.0089H99.7883V46.0089ZM139.108 45.0089V52.6089H141.108V45.0089H139.108ZM140.108 51.6089H109.788V53.6089H140.108V51.6089ZM108.788 52.6089V55.8089H110.788V52.6089H108.788ZM109.788 56.8089H134.588V54.8089H109.788V56.8089ZM133.588 55.8089V59.8089H135.588V55.8089H133.588ZM134.588 58.8089H109.788V60.8089H134.588V58.8089ZM159.974 45.0089V44.0089H158.974V45.0089H159.974ZM169.974 45.0089H170.974V44.0089H169.974V45.0089ZM169.974 70.6089V71.6089H170.974V70.6089H169.974ZM159.974 70.6089H158.974V71.6089H159.974V70.6089ZM159.974 46.0089H169.974V44.0089H159.974V46.0089ZM168.974 45.0089V70.6089H170.974V45.0089H168.974ZM169.974 69.6089H159.974V71.6089H169.974V69.6089ZM160.974 70.6089V45.0089H158.974V70.6089H160.974ZM203.931 70.7689L204.076 69.7795L204.069 69.7784L203.931 70.7689ZM196.411 68.6889L195.978 69.5901L195.984 69.5933L195.991 69.5965L196.411 68.6889ZM191.491 64.5689L190.657 65.1207L190.663 65.1295L191.491 64.5689ZM191.531 51.4089L192.363 51.9636L192.367 51.9578L191.531 51.4089ZM196.571 47.1689L197.001 48.072L197.005 48.0697L196.571 47.1689ZM204.451 44.8889L204.305 43.8996L204.304 43.8998L204.451 44.8889ZM227.091 45.5689L226.829 46.5338L226.831 46.5344L227.091 45.5689ZM234.771 49.4489L234.081 50.1723L234.086 50.1777L234.771 49.4489ZM237.611 55.3689V56.3689H238.671L238.609 55.3108L237.611 55.3689ZM227.211 55.3689L226.333 55.8477L226.617 56.3689H227.211V55.3689ZM225.451 53.6889L224.902 54.5249L224.912 54.531L224.921 54.5369L225.451 53.6889ZM221.611 52.3289L221.412 53.3089L221.412 53.3089L221.611 52.3289ZM206.371 52.4489L206.555 53.4318L206.567 53.4295L206.371 52.4489ZM201.691 54.4089L201.014 53.6726L201.014 53.6726L201.691 54.4089ZM201.731 61.2489L202.375 60.484L202.375 60.484L201.731 61.2489ZM206.611 63.1689L206.798 62.1865L206.798 62.1865L206.611 63.1689ZM222.211 63.4889L222.323 64.4827L222.335 64.4812L222.211 63.4889ZM227.411 62.4089L227.119 61.4524L227.115 61.4538L227.411 62.4089ZM232.091 60.6089L232.861 59.9713L232.369 59.3764L231.669 59.7023L232.091 60.6089ZM233.051 61.7689L233.935 62.2371L234.248 61.6464L233.821 61.1313L233.051 61.7689ZM225.691 68.9289L226.144 69.8204L226.144 69.8204L225.691 68.9289ZM230.331 70.6089H229.331V71.6089H230.331V70.6089ZM230.651 67.8889L229.673 67.6829L230.651 67.8889ZM231.451 64.7289L230.496 64.4332L230.494 64.4406L230.491 64.448L231.451 64.7289ZM232.451 61.5689L233.402 61.8774L233.827 60.5689H232.451V61.5689ZM216.851 61.5689H215.851V62.5689H216.851V61.5689ZM216.851 57.3689V56.3689H215.851V57.3689H216.851ZM238.171 57.3689H239.171V56.3689H238.171V57.3689ZM238.171 70.6089V71.6089H239.171V70.6089H238.171ZM213.491 70.4089C210.065 70.4089 206.927 70.198 204.076 69.7795L203.786 71.7583C206.748 72.1931 209.984 72.4089 213.491 72.4089V70.4089ZM204.069 69.7784C201.264 69.3889 198.856 68.7181 196.831 67.7813L195.991 69.5965C198.232 70.633 200.838 71.3489 203.794 71.7594L204.069 69.7784ZM196.845 67.7877C194.878 66.8419 193.382 65.5787 192.319 64.0083L190.663 65.1295C191.947 67.0258 193.731 68.5092 195.978 69.5901L196.845 67.7877ZM192.325 64.0172C191.313 62.4866 190.771 60.5055 190.771 58.0089H188.771C188.771 60.7923 189.376 63.1846 190.657 65.1206L192.325 64.0172ZM190.771 58.0089C190.771 55.5172 191.324 53.5227 192.363 51.9636L190.699 50.8542C189.392 52.815 188.771 55.2205 188.771 58.0089H190.771ZM192.367 51.9578C193.427 50.3437 194.957 49.044 197.001 48.0719L196.142 46.2658C193.812 47.3738 191.982 48.9007 190.695 50.86L192.367 51.9578ZM197.005 48.0697C199.109 47.0561 201.634 46.32 204.599 45.8779L204.304 43.8998C201.188 44.3644 198.46 45.1484 196.137 46.268L197.005 48.0697ZM204.597 45.8781C207.607 45.4333 210.97 45.2089 214.691 45.2089V43.2089C210.892 43.2089 207.429 43.4378 204.305 43.8996L204.597 45.8781ZM214.691 45.2089C219.57 45.2089 223.609 45.658 226.829 46.5338L227.354 44.6039C223.907 43.6664 219.679 43.2089 214.691 43.2089V45.2089ZM226.831 46.5344C230.094 47.4151 232.482 48.6466 234.081 50.1722L235.462 48.7255C233.54 46.8912 230.808 45.536 227.352 44.6034L226.831 46.5344ZM234.086 50.1777C235.67 51.6657 236.495 53.4032 236.613 55.4269L238.609 55.3108C238.46 52.7479 237.392 50.5387 235.456 48.72L234.086 50.1777ZM237.611 54.3689H227.211V56.3689H237.611V54.3689ZM228.089 54.89C227.655 54.095 226.912 53.4228 225.981 52.8409L224.921 54.5369C225.697 55.0216 226.127 55.4695 226.333 55.8477L228.089 54.89ZM226 52.8528C224.991 52.1906 223.566 51.7055 221.81 51.3489L221.412 53.3089C223.07 53.6456 224.205 54.0672 224.902 54.5249L226 52.8528ZM221.81 51.3489C220.009 50.983 217.627 50.8089 214.691 50.8089V52.8089C217.569 52.8089 219.8 52.9814 221.412 53.3089L221.81 51.3489ZM214.691 50.8089C211.245 50.8089 208.399 51.0236 206.175 51.4683L206.567 53.4295C208.61 53.0208 211.311 52.8089 214.691 52.8089V50.8089ZM206.187 51.466C203.973 51.8812 202.2 52.5833 201.014 53.6726L202.368 55.1452C203.156 54.4211 204.503 53.8166 206.555 53.4318L206.187 51.466ZM201.014 53.6726C199.797 54.7914 199.211 56.2712 199.211 58.0089H201.211C201.211 56.7599 201.612 55.8397 202.368 55.1452L201.014 53.6726ZM199.211 58.0089C199.211 59.6152 199.852 60.9735 201.087 62.0138L202.375 60.484C201.584 59.8176 201.211 59.0159 201.211 58.0089H199.211ZM201.087 62.0138C202.295 63.0309 204.122 63.7127 206.424 64.1512L206.798 62.1865C204.621 61.7718 203.194 61.1736 202.375 60.484L201.087 62.0138ZM206.424 64.1512C208.751 64.5945 211.781 64.8089 215.491 64.8089V62.8089C211.841 62.8089 208.951 62.5966 206.798 62.1865L206.424 64.1512ZM215.491 64.8089C218.103 64.8089 220.382 64.7013 222.323 64.4826L222.099 62.4952C220.253 62.7031 218.053 62.8089 215.491 62.8089V64.8089ZM222.335 64.4812C224.303 64.2352 226.095 63.8644 227.707 63.364L227.115 61.4538C225.634 61.9134 223.96 62.2626 222.087 62.4966L222.335 64.4812ZM227.703 63.3654C229.322 62.8713 230.926 62.2544 232.513 61.5155L231.669 59.7023C230.163 60.4034 228.646 60.9865 227.119 61.4524L227.703 63.3654ZM231.321 61.2465L232.281 62.4065L233.821 61.1313L232.861 59.9713L231.321 61.2465ZM232.167 61.3007C230.614 64.2322 228.314 66.4741 225.238 68.0374L226.144 69.8204C229.575 68.077 232.181 65.5456 233.935 62.2371L232.167 61.3007ZM225.238 68.0374C222.164 69.5995 218.264 70.4089 213.491 70.4089V72.4089C218.478 72.4089 222.711 71.5649 226.144 69.8204L225.238 68.0374ZM231.331 70.6089C231.331 69.8949 231.427 69.0591 231.63 68.0949L229.673 67.6829C229.449 68.7453 229.331 69.7229 229.331 70.6089H231.331ZM231.63 68.0949C231.837 67.1091 232.097 66.0808 232.411 65.0098L230.491 64.448C230.165 65.5636 229.892 66.642 229.673 67.6829L231.63 68.0949ZM232.406 65.0246C232.752 63.9083 233.084 62.8593 233.402 61.8774L231.5 61.2604C231.178 62.2518 230.844 63.3095 230.496 64.4332L232.406 65.0246ZM232.451 60.5689H216.851V62.5689H232.451V60.5689ZM217.851 61.5689V57.3689H215.851V61.5689H217.851ZM216.851 58.3689H238.171V56.3689H216.851V58.3689ZM237.171 57.3689V70.6089H239.171V57.3689H237.171ZM238.171 69.6089H230.331V71.6089H238.171V69.6089ZM266.325 53.8489V52.8489H265.325V53.8489H266.325ZM294.485 53.8489H295.485V52.8489H294.485V53.8489ZM294.485 61.4489V62.4489H295.485V61.4489H294.485ZM266.325 61.4489H265.325V62.4489H266.325V61.4489ZM293.365 45.0089V44.0089H292.365V45.0089H293.365ZM303.365 45.0089H304.365V44.0089H303.365V45.0089ZM303.365 70.6089V71.6089H304.365V70.6089H303.365ZM293.365 70.6089H292.365V71.6089H293.365V70.6089ZM257.765 45.0089V44.0089H256.765V45.0089H257.765ZM267.765 45.0089H268.765V44.0089H267.765V45.0089ZM267.765 70.6089V71.6089H268.765V70.6089H267.765ZM257.765 70.6089H256.765V71.6089H257.765V70.6089ZM266.325 54.8489H294.485V52.8489H266.325V54.8489ZM293.485 53.8489V61.4489H295.485V53.8489H293.485ZM294.485 60.4489H266.325V62.4489H294.485V60.4489ZM267.325 61.4489V53.8489H265.325V61.4489H267.325ZM293.365 46.0089H303.365V44.0089H293.365V46.0089ZM302.365 45.0089V70.6089H304.365V45.0089H302.365ZM303.365 69.6089H293.365V71.6089H303.365V69.6089ZM294.365 70.6089V45.0089H292.365V70.6089H294.365ZM257.765 46.0089H267.765V44.0089H257.765V46.0089ZM266.765 45.0089V70.6089H268.765V45.0089H266.765ZM267.765 69.6089H257.765V71.6089H267.765V69.6089ZM258.765 70.6089V45.0089H256.765V70.6089H258.765ZM321.376 45.0089V44.0089H320.376V45.0089H321.376ZM362.976 45.0089H363.976V44.0089H362.976V45.0089ZM362.976 52.6089V53.6089H363.976V52.6089H362.976ZM321.376 52.6089H320.376V53.6089H321.376V52.6089ZM337.176 52.0889V51.0889H336.176V52.0889H337.176ZM347.176 52.0889H348.176V51.0889H347.176V52.0889ZM347.176 70.6089V71.6089H348.176V70.6089H347.176ZM337.176 70.6089H336.176V71.6089H337.176V70.6089ZM321.376 46.0089H362.976V44.0089H321.376V46.0089ZM361.976 45.0089V52.6089H363.976V45.0089H361.976ZM362.976 51.6089H321.376V53.6089H362.976V51.6089ZM322.376 52.6089V45.0089H320.376V52.6089H322.376ZM337.176 53.0889H347.176V51.0889H337.176V53.0889ZM346.176 52.0889V70.6089H348.176V52.0889H346.176ZM347.176 69.6089H337.176V71.6089H347.176V69.6089ZM338.176 70.6089V52.0889H336.176V70.6089H338.176ZM23.7297 93.0089H24.7297V92.0089H23.7297V93.0089ZM23.7297 111.009H22.7297V112.009H23.7297V111.009ZM47.0497 111.009H48.0497V110.009H47.0497V111.009ZM47.0497 118.609V119.609H48.0497V118.609H47.0497ZM13.7297 118.609H12.7297V119.609H13.7297V118.609ZM13.7297 93.0089V92.0089H12.7297V93.0089H13.7297ZM22.7297 93.0089V111.009H24.7297V93.0089H22.7297ZM23.7297 112.009H47.0497V110.009H23.7297V112.009ZM46.0497 111.009V118.609H48.0497V111.009H46.0497ZM47.0497 117.609H13.7297V119.609H47.0497V117.609ZM14.7297 118.609V93.0089H12.7297V118.609H14.7297ZM13.7297 94.0089H23.7297V92.0089H13.7297V94.0089ZM66.0641 93.0089V92.0089H65.0641V93.0089H66.0641ZM76.0641 93.0089H77.0641V92.0089H76.0641V93.0089ZM76.0641 118.609V119.609H77.0641V118.609H76.0641ZM66.0641 118.609H65.0641V119.609H66.0641V118.609ZM66.0641 94.0089H76.0641V92.0089H66.0641V94.0089ZM75.0641 93.0089V118.609H77.0641V93.0089H75.0641ZM76.0641 117.609H66.0641V119.609H76.0641V117.609ZM67.0641 118.609V93.0089H65.0641V118.609H67.0641ZM136.581 93.0089H137.581V92.0089H136.581V93.0089ZM136.581 100.609V101.609H137.581V100.609H136.581ZM106.261 100.609V99.6089H105.261V100.609H106.261ZM106.261 104.009H105.261V105.009H106.261V104.009ZM131.061 104.009H132.061V103.009H131.061V104.009ZM131.061 110.809V111.809H132.061V110.809H131.061ZM106.261 110.809V109.809H105.261V110.809H106.261ZM106.261 118.609V119.609H107.261V118.609H106.261ZM96.2609 118.609H95.2609V119.609H96.2609V118.609ZM96.2609 93.0089V92.0089H95.2609V93.0089H96.2609ZM135.581 93.0089V100.609H137.581V93.0089H135.581ZM136.581 99.6089H106.261V101.609H136.581V99.6089ZM105.261 100.609V104.009H107.261V100.609H105.261ZM106.261 105.009H131.061V103.009H106.261V105.009ZM130.061 104.009V110.809H132.061V104.009H130.061ZM131.061 109.809H106.261V111.809H131.061V109.809ZM105.261 110.809V118.609H107.261V110.809H105.261ZM106.261 117.609H96.2609V119.609H106.261V117.609ZM97.2609 118.609V93.0089H95.2609V118.609H97.2609ZM96.2609 94.0089H136.581V92.0089H96.2609V94.0089ZM153.778 93.0089V92.0089H152.778V93.0089H153.778ZM195.378 93.0089H196.378V92.0089H195.378V93.0089ZM195.378 100.609V101.609H196.378V100.609H195.378ZM153.778 100.609H152.778V101.609H153.778V100.609ZM169.578 100.089V99.0889H168.578V100.089H169.578ZM179.578 100.089H180.578V99.0889H179.578V100.089ZM179.578 118.609V119.609H180.578V118.609H179.578ZM169.578 118.609H168.578V119.609H169.578V118.609ZM153.778 94.0089H195.378V92.0089H153.778V94.0089ZM194.378 93.0089V100.609H196.378V93.0089H194.378ZM195.378 99.6089H153.778V101.609H195.378V99.6089ZM154.778 100.609V93.0089H152.778V100.609H154.778ZM169.578 101.089H179.578V99.0889H169.578V101.089ZM178.578 100.089V118.609H180.578V100.089H178.578ZM179.578 117.609H169.578V119.609H179.578V117.609ZM170.578 118.609V100.089H168.578V118.609H170.578ZM213.963 93.0089V92.0089H212.963V93.0089H213.963ZM223.963 93.0089H224.963V92.0089H223.963V93.0089ZM223.963 118.609V119.609H224.963V118.609H223.963ZM213.963 118.609H212.963V119.609H213.963V118.609ZM213.963 94.0089H223.963V92.0089H213.963V94.0089ZM222.963 93.0089V118.609H224.963V93.0089H222.963ZM223.963 117.609H213.963V119.609H223.963V117.609ZM214.963 118.609V93.0089H212.963V118.609H214.963ZM284.279 110.769L284.775 111.638L286.273 110.784L284.787 109.907L284.279 110.769ZM280.559 112.889H279.559V114.61L281.055 113.758L280.559 112.889ZM280.559 93.0089V92.0089H279.559V93.0089H280.559ZM290.559 93.0089H291.559V92.0089H290.559V93.0089ZM290.559 118.609V119.609H291.559V118.609H290.559ZM280.559 118.609L280.058 119.474L280.291 119.609H280.559V118.609ZM250.439 101.169L249.937 100.304L248.446 101.17L249.938 102.034L250.439 101.169ZM254.159 99.0089H255.159V97.2719L253.657 98.1441L254.159 99.0089ZM254.159 118.609V119.609H255.159V118.609H254.159ZM244.159 118.609H243.159V119.609H244.159V118.609ZM244.159 93.0089V92.0089H243.159V93.0089H244.159ZM254.159 93.0089L254.667 92.1475L254.432 92.0089H254.159V93.0089ZM283.784 109.9L280.064 112.02L281.055 113.758L284.775 111.638L283.784 109.9ZM281.559 112.889V93.0089H279.559V112.889H281.559ZM280.559 94.0089H290.559V92.0089H280.559V94.0089ZM289.559 93.0089V118.609H291.559V93.0089H289.559ZM290.559 117.609H280.559V119.609H290.559V117.609ZM281.06 117.743L250.94 100.303L249.938 102.034L280.058 119.474L281.06 117.743ZM250.942 102.034L254.662 99.8737L253.657 98.1441L249.937 100.304L250.942 102.034ZM253.159 99.0089V118.609H255.159V99.0089H253.159ZM254.159 117.609H244.159V119.609H254.159V117.609ZM245.159 118.609V93.0089H243.159V118.609H245.159ZM244.159 94.0089H254.159V92.0089H244.159V94.0089ZM253.651 93.8703L283.771 111.63L284.787 109.907L254.667 92.1475L253.651 93.8703ZM323.912 118.769L324.057 117.779L324.049 117.778L323.912 118.769ZM316.392 116.689L315.958 117.59L315.965 117.593L315.972 117.597L316.392 116.689ZM311.472 112.569L310.637 113.121L310.643 113.129L311.472 112.569ZM311.512 99.4089L312.344 99.9636L312.347 99.9578L311.512 99.4089ZM316.552 95.1689L316.981 96.072L316.986 96.0697L316.552 95.1689ZM324.432 92.8889L324.285 91.8996L324.284 91.8998L324.432 92.8889ZM347.072 93.5689L346.809 94.5338L346.811 94.5344L347.072 93.5689ZM354.752 97.4489L354.061 98.1723L354.067 98.1777L354.752 97.4489ZM357.592 103.369V104.369H358.651L358.59 103.311L357.592 103.369ZM347.192 103.369L346.314 103.848L346.598 104.369H347.192V103.369ZM345.432 101.689L344.883 102.525L344.892 102.531L344.902 102.537L345.432 101.689ZM341.592 100.329L341.393 101.309L341.393 101.309L341.592 100.329ZM326.352 100.449L326.536 101.432L326.548 101.429L326.352 100.449ZM321.672 102.409L320.995 101.673L320.995 101.673L321.672 102.409ZM321.712 109.249L322.356 108.484L322.356 108.484L321.712 109.249ZM326.592 111.169L326.779 110.187L326.779 110.187L326.592 111.169ZM342.192 111.489L342.304 112.483L342.316 112.481L342.192 111.489ZM347.392 110.409L347.1 109.452L347.095 109.454L347.392 110.409ZM352.072 108.609L352.842 107.971L352.35 107.376L351.65 107.702L352.072 108.609ZM353.032 109.769L353.915 110.237L354.228 109.646L353.802 109.131L353.032 109.769ZM345.672 116.929L346.125 117.82L346.125 117.82L345.672 116.929ZM350.312 118.609H349.312V119.609H350.312V118.609ZM350.632 115.889L349.653 115.683L350.632 115.889ZM351.432 112.729L350.476 112.433L350.474 112.441L350.472 112.448L351.432 112.729ZM352.432 109.569L353.383 109.877L353.807 108.569H352.432V109.569ZM336.832 109.569H335.832V110.569H336.832V109.569ZM336.832 105.369V104.369H335.832V105.369H336.832ZM358.152 105.369H359.152V104.369H358.152V105.369ZM358.152 118.609V119.609H359.152V118.609H358.152ZM333.472 118.409C330.045 118.409 326.908 118.198 324.057 117.779L323.766 119.758C326.729 120.193 329.965 120.409 333.472 120.409V118.409ZM324.049 117.778C321.245 117.389 318.837 116.718 316.811 115.781L315.972 117.597C318.213 118.633 320.819 119.349 323.774 119.759L324.049 117.778ZM316.825 115.788C314.859 114.842 313.363 113.579 312.3 112.008L310.643 113.129C311.927 115.026 313.711 116.509 315.958 117.59L316.825 115.788ZM312.306 112.017C311.293 110.487 310.752 108.505 310.752 106.009H308.752C308.752 108.792 309.357 111.185 310.638 113.121L312.306 112.017ZM310.752 106.009C310.752 103.517 311.304 101.523 312.344 99.9636L310.68 98.8542C309.372 100.815 308.752 103.221 308.752 106.009H310.752ZM312.347 99.9578C313.407 98.3437 314.937 97.044 316.981 96.0719L316.122 94.2658C313.793 95.3738 311.962 96.9007 310.676 98.86L312.347 99.9578ZM316.986 96.0697C319.089 95.0561 321.615 94.32 324.579 93.8779L324.284 91.8998C321.168 92.3644 318.441 93.1484 316.117 94.268L316.986 96.0697ZM324.578 93.8781C327.587 93.4333 330.951 93.2089 334.672 93.2089V91.2089C330.873 91.2089 327.409 91.4378 324.285 91.8996L324.578 93.8781ZM334.672 93.2089C339.551 93.2089 343.589 93.658 346.809 94.5338L347.334 92.6039C343.887 91.6664 339.659 91.2089 334.672 91.2089V93.2089ZM346.811 94.5344C350.075 95.4151 352.463 96.6466 354.061 98.1722L355.442 96.7255C353.52 94.8912 350.788 93.536 347.332 92.6034L346.811 94.5344ZM354.067 98.1777C355.651 99.6657 356.476 101.403 356.593 103.427L358.59 103.311C358.441 100.748 357.372 98.5387 355.436 96.72L354.067 98.1777ZM357.592 102.369H347.192V104.369H357.592V102.369ZM348.069 102.89C347.636 102.095 346.893 101.423 345.962 100.841L344.902 102.537C345.677 103.022 346.107 103.469 346.314 103.848L348.069 102.89ZM345.98 100.853C344.971 100.191 343.546 99.7055 341.791 99.3489L341.393 101.309C343.05 101.646 344.185 102.067 344.883 102.525L345.98 100.853ZM341.791 99.3489C339.99 98.983 337.607 98.8089 334.672 98.8089V100.809C337.549 100.809 339.78 100.981 341.393 101.309L341.791 99.3489ZM334.672 98.8089C331.225 98.8089 328.379 99.0236 326.155 99.4683L326.548 101.429C328.591 101.021 331.291 100.809 334.672 100.809V98.8089ZM326.167 99.466C323.953 99.8812 322.18 100.583 320.995 101.673L322.348 103.145C323.136 102.421 324.483 101.817 326.536 101.432L326.167 99.466ZM320.995 101.673C319.777 102.791 319.192 104.271 319.192 106.009H321.192C321.192 104.76 321.592 103.84 322.348 103.145L320.995 101.673ZM319.192 106.009C319.192 107.615 319.832 108.974 321.067 110.014L322.356 108.484C321.564 107.818 321.192 107.016 321.192 106.009H319.192ZM321.067 110.014C322.275 111.031 324.102 111.713 326.404 112.151L326.779 110.187C324.601 109.772 323.175 109.174 322.356 108.484L321.067 110.014ZM326.404 112.151C328.732 112.595 331.762 112.809 335.472 112.809V110.809C331.821 110.809 328.931 110.597 326.779 110.187L326.404 112.151ZM335.472 112.809C338.083 112.809 340.363 112.701 342.304 112.483L342.08 110.495C340.234 110.703 338.033 110.809 335.472 110.809V112.809ZM342.316 112.481C344.283 112.235 346.075 111.864 347.688 111.364L347.095 109.454C345.614 109.913 343.94 110.263 342.068 110.497L342.316 112.481ZM347.683 111.365C349.303 110.871 350.906 110.254 352.494 109.515L351.65 107.702C350.144 108.403 348.627 108.986 347.1 109.452L347.683 111.365ZM351.301 109.246L352.261 110.406L353.802 109.131L352.842 107.971L351.301 109.246ZM352.148 109.301C350.595 112.232 348.295 114.474 345.219 116.037L346.125 117.82C349.555 116.077 352.162 113.546 353.915 110.237L352.148 109.301ZM345.219 116.037C342.145 117.599 338.245 118.409 333.472 118.409V120.409C338.458 120.409 342.692 119.565 346.125 117.82L345.219 116.037ZM351.312 118.609C351.312 117.895 351.407 117.059 351.61 116.095L349.653 115.683C349.429 116.745 349.312 117.723 349.312 118.609H351.312ZM351.61 116.095C351.818 115.109 352.078 114.081 352.391 113.01L350.472 112.448C350.145 113.564 349.872 114.642 349.653 115.683L351.61 116.095ZM352.387 113.025C352.732 111.908 353.064 110.859 353.383 109.877L351.48 109.26C351.159 110.252 350.824 111.309 350.476 112.433L352.387 113.025ZM352.432 108.569H336.832V110.569H352.432V108.569ZM337.832 109.569V105.369H335.832V109.569H337.832ZM336.832 106.369H358.152V104.369H336.832V106.369ZM357.152 105.369V118.609H359.152V105.369H357.152ZM358.152 117.609H350.312V119.609H358.152V117.609Z" fill="#FFFCEB" fill-opacity="0.5"/>
</svg>
