<svg width="120" height="88" viewBox="0 0 120 88" fill="none" xmlns="http://www.w3.org/2000/svg">
<path d="M41.5996 63.7409C46.5558 59.0068 53.146 56.3651 59.9999 56.3651C66.8538 56.3651 73.444 59.0068 78.4002 63.7409" stroke="white" stroke-width="10.7446" stroke-linecap="round" stroke-linejoin="round"/>
<path d="M23.793 45.9341C33.4723 36.4771 46.4677 31.1825 60 31.1825C73.5324 31.1825 86.5277 36.4771 96.2071 45.9341" stroke="white" stroke-width="10.7446" stroke-linecap="round" stroke-linejoin="round"/>
<path d="M6 28.1274C20.3967 13.9479 39.793 6 60 6C80.207 6 99.6033 13.9479 114 28.1274" stroke="white" stroke-width="10.7446" stroke-linecap="round" stroke-linejoin="round"/>
<path d="M60.0046 87.8418C63.4816 87.8418 66.3003 85.0231 66.3003 81.5461C66.3003 78.0691 63.4816 75.2505 60.0046 75.2505C56.5276 75.2505 53.709 78.0691 53.709 81.5461C53.709 85.0231 56.5276 87.8418 60.0046 87.8418Z" fill="#FFFCEB"/>
</svg>
