<svg width="375" height="81" viewBox="0 0 375 81" fill="none" xmlns="http://www.w3.org/2000/svg">
<g id="Group 28">
<path id="ZUMBA" d="M35.3078 45.6588V44.6588H34.3078V45.6588H35.3078ZM77.7078 45.6588H78.7078V44.6588H77.7078V45.6588ZM77.7078 53.2588L78.0899 54.1829L78.7078 53.9274V53.2588H77.7078ZM48.5878 65.2988L47.6063 65.4903L47.8404 66.6899L48.9699 66.2229L48.5878 65.2988ZM48.2678 63.6588V62.6588H47.0538L47.2863 63.8503L48.2678 63.6588ZM77.7078 63.6588H78.7078V62.6588H77.7078V63.6588ZM77.7078 71.2588V72.2588H78.7078V71.2588H77.7078ZM35.3078 71.2588H34.3078V72.2588H35.3078V71.2588ZM35.3078 63.6588L34.9271 62.7341L34.3078 62.9891V63.6588H35.3078ZM64.5478 51.6188L65.5293 51.4273L65.2956 50.2294L64.1671 50.6941L64.5478 51.6188ZM64.8678 53.2588V54.2588H66.0818L65.8493 53.0673L64.8678 53.2588ZM35.3078 53.2588H34.3078V54.2588H35.3078V53.2588ZM35.3078 46.6588H77.7078V44.6588H35.3078V46.6588ZM76.7078 45.6588V53.2588H78.7078V45.6588H76.7078ZM77.3257 52.3347L48.2057 64.3747L48.9699 66.2229L78.0899 54.1829L77.3257 52.3347ZM49.5693 65.1073L49.2493 63.4673L47.2863 63.8503L47.6063 65.4903L49.5693 65.1073ZM48.2678 64.6588H77.7078V62.6588H48.2678V64.6588ZM76.7078 63.6588V71.2588H78.7078V63.6588H76.7078ZM77.7078 70.2588H35.3078V72.2588H77.7078V70.2588ZM36.3078 71.2588V63.6588H34.3078V71.2588H36.3078ZM35.6886 64.5835L64.9286 52.5435L64.1671 50.6941L34.9271 62.7341L35.6886 64.5835ZM63.5663 51.8103L63.8863 53.4503L65.8493 53.0673L65.5293 51.4273L63.5663 51.8103ZM64.8678 52.2588H35.3078V54.2588H64.8678V52.2588ZM36.3078 53.2588V45.6588H34.3078V53.2588H36.3078ZM133.276 45.6588V44.6588H132.276V45.6588H133.276ZM143.276 45.6588H144.276V44.6588H143.276V45.6588ZM141.996 64.2588L141.113 63.7882L141.11 63.7937L141.996 64.2588ZM138.516 68.1788L139.077 69.0063L139.087 68.9994L138.516 68.1788ZM133.356 70.5388L133.632 71.4998L133.632 71.4998L133.356 70.5388ZM127.076 71.6988L126.981 70.7032L126.968 70.7046L127.076 71.6988ZM113.276 71.6988L113.381 70.7043L113.369 70.7032L113.276 71.6988ZM106.956 70.5388L106.676 71.4988L106.679 71.4998L106.956 70.5388ZM101.916 68.1788L101.33 68.9895L101.34 68.9966L101.916 68.1788ZM98.5156 64.2588L97.6212 64.706L97.6257 64.715L97.6304 64.7239L98.5156 64.2588ZM97.3156 45.6588V44.6588H96.3156V45.6588H97.3156ZM107.316 45.6588H108.316V44.6588H107.316V45.6588ZM108.876 61.5388L108.143 62.2192L108.876 61.5388ZM113.316 63.8588L113.099 64.835L113.107 64.8367L113.114 64.8383L113.316 63.8588ZM127.196 63.8588L127.397 64.8384L127.41 64.8356L127.196 63.8588ZM131.676 61.5388L130.951 60.8491L130.943 60.8583L131.676 61.5388ZM134.276 56.6588V45.6588H132.276V56.6588H134.276ZM133.276 46.6588H143.276V44.6588H133.276V46.6588ZM142.276 45.6588V58.4588H144.276V45.6588H142.276ZM142.276 58.4588C142.276 60.6016 141.872 62.3648 141.113 63.7882L142.878 64.7294C143.826 62.9527 144.276 60.8493 144.276 58.4588H142.276ZM141.11 63.7937C140.36 65.2216 139.309 66.4075 137.944 67.3582L139.087 68.9994C140.709 67.87 141.978 66.4427 142.881 64.7239L141.11 63.7937ZM137.954 67.3513C136.558 68.2986 134.937 69.0434 133.079 69.5778L133.632 71.4998C135.668 70.9142 137.486 70.0857 139.077 69.0063L137.954 67.3513ZM133.079 69.5778C131.198 70.1189 129.166 70.4952 126.981 70.7033L127.17 72.6943C129.465 72.4757 131.62 72.0786 133.632 71.4998L133.079 69.5778ZM126.968 70.7046C124.791 70.9406 122.574 71.0588 120.316 71.0588V73.0588C122.644 73.0588 124.933 72.937 127.183 72.693L126.968 70.7046ZM120.316 71.0588C117.922 71.0588 115.61 70.9404 113.381 70.7043L113.17 72.6932C115.474 72.9372 117.856 73.0588 120.316 73.0588V71.0588ZM113.369 70.7032C111.157 70.495 109.112 70.1186 107.232 69.5778L106.679 71.4998C108.692 72.079 110.861 72.4759 113.182 72.6944L113.369 70.7032ZM107.236 69.5788C105.407 69.0455 103.83 68.303 102.491 67.361L101.34 68.9966C102.881 70.0812 104.664 70.9121 106.676 71.4988L107.236 69.5788ZM102.501 67.3681C101.186 66.4186 100.156 65.2303 99.4009 63.7937L97.6304 64.7239C98.5289 66.434 99.7648 67.8589 101.33 68.9895L102.501 67.3681ZM99.4101 63.8116C98.6955 62.3825 98.3156 60.6105 98.3156 58.4588H96.3156C96.3156 60.8404 96.7357 62.9351 97.6212 64.706L99.4101 63.8116ZM98.3156 58.4588V45.6588H96.3156V58.4588H98.3156ZM97.3156 46.6588H107.316V44.6588H97.3156V46.6588ZM106.316 45.6588V56.6588H108.316V45.6588H106.316ZM106.316 56.6588C106.316 58.9441 106.873 60.8519 108.143 62.2192L109.608 60.8583C108.798 59.9857 108.316 58.6401 108.316 56.6588H106.316ZM108.143 62.2192C109.356 63.5253 111.037 64.3769 113.099 64.835L113.533 62.8826C111.754 62.4874 110.476 61.7923 109.608 60.8583L108.143 62.2192ZM113.114 64.8383C115.146 65.2559 117.551 65.4588 120.316 65.4588V63.4588C117.64 63.4588 115.378 63.2617 113.517 62.8793L113.114 64.8383ZM120.316 65.4588C123.003 65.4588 125.367 65.2555 127.397 64.8383L126.994 62.8793C125.131 63.2621 122.909 63.4588 120.316 63.4588V65.4588ZM127.41 64.8356C129.495 64.3785 131.193 63.528 132.408 62.2192L130.943 60.8583C130.078 61.7896 128.789 62.4858 126.982 62.882L127.41 64.8356ZM132.4 62.2284C133.702 60.8616 134.276 58.9502 134.276 56.6588H132.276C132.276 58.634 131.783 59.976 130.951 60.8491L132.4 62.2284ZM194.638 68.2188V69.2188H196.992L195.358 67.5246L194.638 68.2188ZM188.638 68.2188L187.92 67.5232L186.278 69.2188H188.638V68.2188ZM210.478 45.6588V44.6588H210.054L209.76 44.9632L210.478 45.6588ZM220.478 45.6588H221.478V44.6588H220.478V45.6588ZM220.478 71.2588V72.2588H221.478V71.2588H220.478ZM210.478 71.2588H209.478V72.2588H210.478V71.2588ZM210.478 53.8188L210.86 52.8946L209.478 52.3234V53.8188H210.478ZM213.478 55.0588L214.194 55.757L215.226 54.6991L213.86 54.1346L213.478 55.0588ZM197.678 71.2588V72.2588H198.1L198.394 71.957L197.678 71.2588ZM185.678 71.2588L184.964 71.9588L185.258 72.2588H185.678V71.2588ZM169.838 55.0988L169.46 54.1729L168.082 54.7353L169.124 55.7988L169.838 55.0988ZM172.878 53.8588H173.878V52.3709L172.5 52.9329L172.878 53.8588ZM172.878 71.2588V72.2588H173.878V71.2588H172.878ZM162.878 71.2588H161.878V72.2588H162.878V71.2588ZM162.878 45.6588V44.6588H161.878V45.6588H162.878ZM172.878 45.6588L173.598 44.9646L173.303 44.6588H172.878V45.6588ZM194.638 67.2188H188.638V69.2188H194.638V67.2188ZM189.357 68.9143L211.197 46.3543L209.76 44.9632L187.92 67.5232L189.357 68.9143ZM210.478 46.6588H220.478V44.6588H210.478V46.6588ZM219.478 45.6588V71.2588H221.478V45.6588H219.478ZM220.478 70.2588H210.478V72.2588H220.478V70.2588ZM211.478 71.2588V53.8188H209.478V71.2588H211.478ZM210.096 54.743L213.096 55.983L213.86 54.1346L210.86 52.8946L210.096 54.743ZM212.762 54.3606L196.962 70.5606L198.394 71.957L214.194 55.757L212.762 54.3606ZM197.678 70.2588H185.678V72.2588H197.678V70.2588ZM186.392 70.5588L170.552 54.3988L169.124 55.7988L184.964 71.9588L186.392 70.5588ZM170.216 56.0247L173.256 54.7847L172.5 52.9329L169.46 54.1729L170.216 56.0247ZM171.878 53.8588V71.2588H173.878V53.8588H171.878ZM172.878 70.2588H162.878V72.2588H172.878V70.2588ZM163.878 71.2588V45.6588H161.878V71.2588H163.878ZM162.878 46.6588H172.878V44.6588H162.878V46.6588ZM172.158 46.353L193.918 68.913L195.358 67.5246L173.598 44.9646L172.158 46.353ZM240.081 71.2588H239.081V72.2588H240.081V71.2588ZM240.081 45.6588V44.6588H239.081V45.6588H240.081ZM276.721 47.1788L277.103 46.2545L277.103 46.2545L276.721 47.1788ZM278.801 56.1388L278.177 55.3579L278.167 55.3657L278.801 56.1388ZM274.281 57.9388L274.443 58.9256L274.454 58.9237L274.281 57.9388ZM267.241 58.5388L266.534 57.8317L264.754 59.6117L267.27 59.5384L267.241 58.5388ZM267.561 58.2188V57.2188H267.147L266.854 57.5117L267.561 58.2188ZM273.121 58.3788L273.184 57.3807L273.184 57.3807L273.121 58.3788ZM277.601 59.0988L277.321 60.0588L277.601 59.0988ZM280.601 60.8188L281.333 60.1374L281.333 60.1374L280.601 60.8188ZM279.921 68.0988L280.594 68.8387L280.594 68.8387L279.921 68.0988ZM274.921 70.4988L275.15 71.4724L275.161 71.4696L274.921 70.4988ZM250.081 63.7388H249.081V64.7388H250.081V63.7388ZM270.321 63.3388L269.937 62.4157L269.93 62.4187L269.923 62.4217L270.321 63.3388ZM270.841 61.0988L270.172 61.8421L270.19 61.8578L270.208 61.8727L270.841 61.0988ZM269.561 60.5788L269.34 61.5539L269.361 61.5588L269.382 61.5627L269.561 60.5788ZM250.081 60.3788V59.3788H249.081V60.3788H250.081ZM250.081 56.5388H249.081V57.5388H250.081V56.5388ZM268.641 56.1388L268.257 55.2157L268.25 55.2187L268.243 55.2217L268.641 56.1388ZM268.641 53.5788L268.243 54.4959L268.266 54.5061L268.29 54.5151L268.641 53.5788ZM250.081 53.1788V52.1788H249.081V53.1788H250.081ZM241.081 71.2588V45.6588H239.081V71.2588H241.081ZM240.081 46.6588H265.281V44.6588H240.081V46.6588ZM265.281 46.6588C270.424 46.6588 274.074 47.1675 276.339 48.103L277.103 46.2545C274.461 45.1634 270.485 44.6588 265.281 44.6588V46.6588ZM276.339 48.103C277.431 48.554 278.18 49.1412 278.661 49.8306C279.139 50.5159 279.401 51.3745 279.401 52.4588H281.401C281.401 51.0364 281.051 49.7616 280.302 48.687C279.555 47.6164 278.465 46.8169 277.103 46.2545L276.339 48.103ZM279.401 52.4588C279.401 53.8133 278.964 54.728 278.177 55.3579L279.426 56.9197C280.772 55.8429 281.401 54.3043 281.401 52.4588H279.401ZM278.167 55.3657C277.309 56.0693 275.989 56.6235 274.108 56.9539L274.454 58.9237C276.52 58.5608 278.213 57.9149 279.436 56.9119L278.167 55.3657ZM274.119 56.952C272.23 57.2626 269.93 57.46 267.212 57.5392L267.27 59.5384C270.046 59.4575 272.439 59.255 274.443 58.9255L274.119 56.952ZM267.948 59.2459L268.268 58.9259L266.854 57.5117L266.534 57.8317L267.948 59.2459ZM267.561 59.2188C269.544 59.2188 271.376 59.2717 273.059 59.3768L273.184 57.3807C271.453 57.2726 269.579 57.2188 267.561 57.2188V59.2188ZM273.059 59.3768C274.711 59.4801 276.129 59.711 277.321 60.0588L277.881 58.1388C276.514 57.7399 274.944 57.4908 273.184 57.3807L273.059 59.3768ZM277.321 60.0588C278.473 60.3947 279.3 60.8891 279.869 61.5002L281.333 60.1374C280.462 59.2018 279.289 58.5495 277.881 58.1388L277.321 60.0588ZM279.869 61.5002C280.372 62.04 280.681 62.8365 280.681 64.0188H282.681C282.681 62.481 282.271 61.1443 281.333 60.1374L279.869 61.5002ZM280.681 64.0188C280.681 65.404 280.204 66.4907 279.249 67.3588L280.594 68.8387C281.986 67.5736 282.681 65.9403 282.681 64.0188H280.681ZM279.249 67.3588C278.238 68.2778 276.742 69.0193 274.682 69.5279L275.161 71.4696C277.421 70.9116 279.258 70.0531 280.594 68.8387L279.249 67.3588ZM274.693 69.5252C272.627 70.0097 270.161 70.2588 267.281 70.2588V72.2588C270.268 72.2588 272.895 72.0012 275.15 71.4724L274.693 69.5252ZM267.281 70.2588H240.081V72.2588H267.281V70.2588ZM250.081 64.7388H267.281V62.7388H250.081V64.7388ZM267.281 64.7388C268.713 64.7388 269.905 64.6103 270.72 64.2559L269.923 62.4217C269.511 62.6006 268.676 62.7388 267.281 62.7388V64.7388ZM270.706 64.2619C271.142 64.08 271.547 63.8117 271.841 63.4188C272.144 63.0149 272.281 62.5457 272.281 62.0588H270.281C270.281 62.1586 270.258 62.196 270.241 62.2188C270.216 62.2525 270.14 62.3309 269.937 62.4157L270.706 64.2619ZM272.281 62.0588C272.281 61.378 272.014 60.7665 271.474 60.3248L270.208 61.8727C270.246 61.9038 270.257 61.9245 270.262 61.9354C270.268 61.948 270.281 61.983 270.281 62.0588H272.281ZM271.51 60.3555C271.042 59.9342 270.401 59.7151 269.74 59.5949L269.382 61.5627C269.894 61.6558 270.107 61.7833 270.172 61.8421L271.51 60.3555ZM269.783 59.6037C269.095 59.4474 268.253 59.3788 267.281 59.3788V61.3788C268.176 61.3788 268.854 61.4435 269.34 61.5539L269.783 59.6037ZM267.281 59.3788H250.081V61.3788H267.281V59.3788ZM249.081 60.3788V63.7388H251.081V60.3788H249.081ZM250.081 57.5388H265.601V55.5388H250.081V57.5388ZM265.601 57.5388C267.033 57.5388 268.225 57.4103 269.04 57.0559L268.243 55.2217C267.831 55.4006 266.996 55.5388 265.601 55.5388V57.5388ZM269.026 57.0619C269.462 56.88 269.867 56.6117 270.161 56.2188C270.464 55.8149 270.601 55.3457 270.601 54.8588H268.601C268.601 54.9586 268.578 54.996 268.561 55.0188C268.536 55.0525 268.46 55.1309 268.257 55.2157L269.026 57.0619ZM270.601 54.8588C270.601 54.3696 270.47 53.8904 270.161 53.4788C269.859 53.0752 269.441 52.8108 268.992 52.6425L268.29 54.5151C268.481 54.5868 268.544 54.6557 268.561 54.6788C268.573 54.6938 268.601 54.7347 268.601 54.8588H270.601ZM269.04 52.6617C268.225 52.3073 267.033 52.1788 265.601 52.1788V54.1788C266.996 54.1788 267.831 54.317 268.243 54.4959L269.04 52.6617ZM265.601 52.1788H250.081V54.1788H265.601V52.1788ZM249.081 53.1788V56.5388H251.081V53.1788H249.081ZM305.446 67.3788H304.446V68.3788H305.446V67.3788ZM305.446 61.3788V60.3788H304.446V61.3788H305.446ZM332.806 61.3788H333.806V60.3788H332.806V61.3788ZM332.806 67.3788V68.3788H333.806V67.3788H332.806ZM296.486 71.2588L295.655 70.702L294.612 72.2588H296.486V71.2588ZM313.646 45.6588V44.6588H313.112L312.815 45.102L313.646 45.6588ZM324.766 45.6588L325.594 45.0984L325.297 44.6588H324.766V45.6588ZM342.086 71.2588V72.2588H343.97L342.914 70.6984L342.086 71.2588ZM331.086 71.2588L330.247 71.8023L330.542 72.2588H331.086V71.2588ZM316.246 48.3388V47.3388H314.407L315.407 48.8823L316.246 48.3388ZM322.206 48.3388L323.047 48.8792L324.037 47.3388H322.206V48.3388ZM307.486 71.2588V72.2588H308.032L308.327 71.7992L307.486 71.2588ZM306.446 67.3788V61.3788H304.446V67.3788H306.446ZM305.446 62.3788H332.806V60.3788H305.446V62.3788ZM331.806 61.3788V67.3788H333.806V61.3788H331.806ZM332.806 66.3788H305.446V68.3788H332.806V66.3788ZM297.317 71.8156L314.477 46.2156L312.815 45.102L295.655 70.702L297.317 71.8156ZM313.646 46.6588H324.766V44.6588H313.646V46.6588ZM323.938 46.2191L341.258 71.8192L342.914 70.6984L325.594 45.0984L323.938 46.2191ZM342.086 70.2588H331.086V72.2588H342.086V70.2588ZM331.925 70.7153L317.085 47.7953L315.407 48.8823L330.247 71.8023L331.925 70.7153ZM316.246 49.3388H322.206V47.3388H316.246V49.3388ZM321.365 47.7984L306.645 70.7184L308.327 71.7992L323.047 48.8792L321.365 47.7984ZM307.486 70.2588H296.486V72.2588H307.486V70.2588Z" fill="#FFFCEB" fill-opacity="0.5"/>
<path id="ZUMBA_2" d="M35.3078 10.4H77.7078V18L48.5878 30.04L48.2678 28.4H77.7078V36H35.3078V28.4L64.5478 16.36L64.8678 18H35.3078V10.4ZM133.276 21.4V10.4H143.276V23.2C143.276 25.4667 142.849 27.4 141.996 29C141.169 30.5733 140.009 31.88 138.516 32.92C137.022 33.9333 135.302 34.72 133.356 35.28C131.409 35.84 129.316 36.2267 127.076 36.44C124.862 36.68 122.609 36.8 120.316 36.8C117.889 36.8 115.542 36.68 113.276 36.44C111.009 36.2267 108.902 35.84 106.956 35.28C105.036 34.72 103.356 33.9333 101.916 32.92C100.476 31.88 99.3423 30.5733 98.5156 29C97.7156 27.4 97.3156 25.4667 97.3156 23.2V10.4H107.316V21.4C107.316 23.5333 107.836 25.16 108.876 26.28C109.916 27.4 111.396 28.1733 113.316 28.6C115.262 29 117.596 29.2 120.316 29.2C122.956 29.2 125.249 29 127.196 28.6C129.142 28.1733 130.636 27.4 131.676 26.28C132.742 25.16 133.276 23.5333 133.276 21.4ZM194.638 32.96H188.638L210.478 10.4H220.478V36H210.478V18.56L213.478 19.8L197.678 36H185.678L169.838 19.84L172.878 18.6V36H162.878V10.4H172.878L194.638 32.96ZM240.081 36V10.4H265.281C270.455 10.4 274.268 10.9067 276.721 11.92C279.175 12.9333 280.401 14.6933 280.401 17.2C280.401 18.8 279.868 20.0267 278.801 20.88C277.761 21.7333 276.255 22.3333 274.281 22.68C272.335 23 269.988 23.2 267.241 23.28L267.561 22.96C269.561 22.96 271.415 23.0133 273.121 23.12C274.828 23.2267 276.321 23.4667 277.601 23.84C278.881 24.2133 279.881 24.7867 280.601 25.56C281.321 26.3333 281.681 27.4 281.681 28.76C281.681 30.4133 281.095 31.7733 279.921 32.84C278.748 33.9067 277.081 34.7067 274.921 35.24C272.761 35.7467 270.215 36 267.281 36H240.081ZM250.081 28.48H267.281C268.695 28.48 269.708 28.3467 270.321 28.08C270.961 27.8133 271.281 27.3867 271.281 26.8C271.281 26.4 271.135 26.08 270.841 25.84C270.575 25.6 270.148 25.4267 269.561 25.32C268.975 25.1867 268.215 25.12 267.281 25.12H250.081V28.48ZM250.081 21.28H265.601C267.015 21.28 268.028 21.1467 268.641 20.88C269.281 20.6133 269.601 20.1867 269.601 19.6C269.601 18.9867 269.281 18.56 268.641 18.32C268.028 18.0533 267.015 17.92 265.601 17.92H250.081V21.28ZM305.446 32.12V26.12H332.806V32.12H305.446ZM296.486 36L313.646 10.4H324.766L342.086 36H331.086L316.246 13.08H322.206L307.486 36H296.486Z" fill="#FFFCEB"/>
</g>
</svg>
